<?xml version="1.0" encoding="UTF-8" standalone="no"?>
<!-- Created with Inkscape (http://www.inkscape.org/) -->

<svg
   xmlns:dc="http://purl.org/dc/elements/1.1/"
   xmlns:cc="http://creativecommons.org/ns#"
   xmlns:rdf="http://www.w3.org/1999/02/22-rdf-syntax-ns#"
   xmlns:svg="http://www.w3.org/2000/svg"
   xmlns="http://www.w3.org/2000/svg"
   xmlns:sodipodi="http://sodipodi.sourceforge.net/DTD/sodipodi-0.dtd"
   xmlns:inkscape="http://www.inkscape.org/namespaces/inkscape"
   width="128mm"
   height="128mm"
   viewBox="0 0 128 128"
   version="1.1"
   id="svg8"
   inkscape:version="0.92.3 (2405546, 2018-03-11)"
   sodipodi:docname="avatar-icon.svg"
   inkscape:export-filename="/home/henry/dev/henrythasler.github.io/img/avatar-icon.png"
   inkscape:export-xdpi="101.6"
   inkscape:export-ydpi="101.6">
  <defs
     id="defs2" />
  <sodipodi:namedview
     id="base"
     pagecolor="#ffffff"
     bordercolor="#666666"
     borderopacity="1.0"
     inkscape:pageopacity="0.0"
     inkscape:pageshadow="2"
     inkscape:zoom="0.98994949"
     inkscape:cx="88.314861"
     inkscape:cy="253.76815"
     inkscape:document-units="mm"
     inkscape:current-layer="layer1"
     showgrid="false"
     fit-margin-top="0"
     fit-margin-left="0"
     fit-margin-right="0"
     fit-margin-bottom="0"
     inkscape:window-width="1869"
     inkscape:window-height="1145"
     inkscape:window-x="51"
     inkscape:window-y="27"
     inkscape:window-maximized="1" />
  <metadata
     id="metadata5">
    <rdf:RDF>
      <cc:Work
         rdf:about="">
        <dc:format>image/svg+xml</dc:format>
        <dc:type
           rdf:resource="http://purl.org/dc/dcmitype/StillImage" />
        <dc:title></dc:title>
      </cc:Work>
    </rdf:RDF>
  </metadata>
  <g
     inkscape:label="Layer 1"
     inkscape:groupmode="layer"
     id="layer1"
     transform="translate(-41,-84.5)">
    <rect
       style="opacity:1;fill:#383838;fill-opacity:1;fill-rule:nonzero;stroke:none;stroke-width:1.01501524;stroke-linecap:square;stroke-linejoin:round;stroke-miterlimit:4;stroke-dasharray:none;stroke-opacity:1;paint-order:stroke fill markers"
       id="rect1513"
       width="128"
       height="128"
       x="41"
       y="84.5"
       rx="0.25275034"
       ry="0.36687773" />
    <path
       style="fill:#ffffff;stroke-width:0.01385235"
       d="m 104.05761,188.49232 c -3.49911,-0.0871 -6.847373,-0.59732 -10.139698,-1.54491 -5.627342,-1.61965 -10.847646,-4.47537 -15.275509,-8.35633 -4.511748,-3.95446 -8.072693,-8.85464 -10.426735,-14.34811 -2.443753,-5.70286 -3.513979,-11.8888 -3.144367,-18.17466 0.171351,-2.91408 0.671991,-5.83661 1.481947,-8.65098 2.039761,-7.08758 6.035342,-13.50561 11.517925,-18.50101 3.767219,-3.43246 8.154572,-6.11515 12.914747,-7.89684 3.775092,-1.41297 7.795192,-2.24849 11.85271,-2.46337 1.3548,-0.0718 2.919,-0.0744 4.22487,-0.008 6.03156,0.31052 11.8155,1.94169 17.07823,4.81635 6.05342,3.30657 11.16022,8.12307 14.80911,13.96733 4.68169,7.49838 6.72528,16.28788 5.85221,25.17024 -0.81107,8.25164 -4.21118,16.077 -9.71314,22.35487 -4.55929,5.20225 -10.36374,9.12779 -16.86858,11.4082 -3.53452,1.2391 -7.2891,1.97769 -11.06779,2.17721 -0.94519,0.0498 -2.2408,0.0704 -3.09593,0.0492 z m 2.29944,-0.97024 c 0.20189,-0.007 0.54474,-0.0232 0.76187,-0.035 7.55153,-0.40718 14.78187,-2.99183 20.89106,-7.46798 1.73265,-1.2695 3.48584,-2.79317 4.90838,-4.2658 0.5045,-0.52226 0.5673,-0.58852 0.8393,-0.8856 2.47454,-2.70265 4.5513,-5.71949 6.17449,-8.9694 0.22775,-0.45599 0.53238,-1.08996 0.55246,-1.14976 0.003,-0.0118 -0.14211,0.27532 -0.32434,0.63722 -0.45127,0.89618 -0.79366,1.532 -1.23434,2.29205 -1.95781,3.3767 -4.28021,6.25149 -6.92218,8.56866 -1.52465,1.33718 -3.20202,2.51757 -4.9252,3.46593 l -0.18818,0.10352 -0.16815,-0.0622 c -0.10813,-0.0399 -0.16485,-0.0676 -0.15891,-0.0775 0.005,-0.008 0.19611,-0.28033 0.42451,-0.60413 1.67323,-2.3722 2.7712,-3.96056 2.85859,-4.13538 0.0227,-0.0455 0.75273,-1.63807 1.62214,-3.53898 l 1.58076,-3.45624 0.11062,-0.43637 c 0.58336,-2.30031 1.06243,-4.72508 1.25349,-6.3445 0.0779,-0.65998 0.0962,-0.94337 0.0969,-1.49608 6.7e-4,-0.56381 -0.0118,-0.71217 -0.0817,-0.99146 -0.0383,-0.15201 -0.12462,-0.34134 -0.17906,-0.39249 l -0.0353,-0.0331 -0.0662,0.0537 c -0.0364,0.0296 -0.18735,0.15272 -0.33538,0.27384 l -0.26913,0.2202 -0.18742,-0.026 -0.1874,-0.026 -0.0107,-0.0484 c -0.006,-0.0267 -0.0325,-0.19497 -0.0594,-0.37401 -0.0526,-0.35018 -0.0961,-0.54995 -0.15164,-0.69765 -0.14514,-0.3856 -0.36584,-0.59332 -0.67427,-0.63458 -0.25201,-0.0337 -0.52826,0.0535 -0.7001,0.2212 -0.10259,0.1001 -0.174,0.19929 -0.33012,0.45874 -0.24517,0.40746 -0.37999,0.53052 -0.67483,0.61597 -0.23418,0.0678 -0.50602,0.0735 -1.02259,0.021 -0.2366,-0.024 -0.56806,-0.018 -0.71367,0.013 -0.14704,0.0313 -0.31688,0.0966 -0.39996,0.15373 -0.0953,0.0656 -0.26147,0.25229 -0.37707,0.42369 -0.059,0.0875 -0.1131,0.1591 -0.1201,0.1591 -0.0234,0 -0.15277,-0.0701 -0.21879,-0.11857 -0.11861,-0.0871 -0.30094,-0.29407 -0.42814,-0.48606 -0.28037,-0.42318 -0.55784,-1.09437 -0.67204,-1.62563 -0.11014,-0.51237 -0.15843,-0.65232 -0.297,-0.86086 -0.17496,-0.26328 -0.4225,-0.51203 -1.33747,-1.34397 -0.21333,-0.19397 -0.41457,-0.38302 -0.4472,-0.42011 -0.1144,-0.13002 -0.18787,-0.32802 -0.22365,-0.60273 -0.033,-0.25298 -0.044,-0.50433 -0.0515,-1.17747 l -0.008,-0.69956 0.24472,-3.05451 0.24473,-3.05451 0.15297,-0.5541 c 0.27181,-0.98451 0.42789,-1.47866 0.55165,-1.74658 0.11653,-0.25224 0.22827,-0.3847 0.52664,-0.62433 0.25988,-0.20873 0.40033,-0.36964 0.52413,-0.60049 0.16784,-0.31295 0.244,-0.63701 0.34183,-1.45453 0.0607,-0.50807 0.14049,-0.8422 0.26182,-1.0979 0.0577,-0.12166 0.37144,-0.64712 0.51065,-0.85532 0.24675,-0.36903 0.42093,-0.52138 0.69552,-0.6083 0.16605,-0.0526 0.31719,-0.0786 0.68245,-0.11772 l 0.30478,-0.0326 0.11593,-0.10034 c 0.88343,-0.76478 1.87515,-1.30239 2.7686,-1.50084 0.29373,-0.0652 0.46881,-0.0838 0.7965,-0.0841 0.32025,-3.4e-4 0.41753,0.009 0.67564,0.0703 0.18544,0.0436 0.25841,0.0895 0.44095,0.27765 0.39461,0.40673 0.57586,0.82156 0.51095,1.16937 -0.0252,0.1354 -0.0895,0.24348 -0.22228,0.3744 l -0.12146,0.11968 0.0906,0.11583 c 0.11215,0.14321 0.79868,0.83012 1.07039,1.07099 0.97321,0.86273 1.70882,1.35019 2.1405,1.4184 0.0455,0.007 0.0883,0.009 0.0949,0.006 0.007,-0.003 0.0422,-0.0704 0.0788,-0.14746 0.0774,-0.16249 0.13141,-0.3458 0.19278,-0.65429 0.0503,-0.25298 0.0715,-0.34183 0.11866,-0.49909 l 0.0339,-0.11286 0.0877,-0.0152 c 0.34126,-0.0594 0.65993,0.0257 1.40392,0.37555 l 0.26971,0.12677 -0.009,0.084 c -0.005,0.0463 -0.0345,0.21183 -0.0653,0.36803 -0.043,0.21777 -0.0577,0.32779 -0.0627,0.47194 -0.006,0.18498 0.0136,0.36233 0.0379,0.33645 0.006,-0.007 0.0469,-0.096 0.0905,-0.19888 0.12163,-0.28655 0.21859,-0.48611 0.27999,-0.57621 0.0523,-0.0768 0.17702,-0.20721 0.27601,-0.28862 l 0.0438,-0.0361 0.1217,0.13185 0.1217,0.13183 h 0.15542 0.15543 l 0.0107,-0.0935 c 0.0118,-0.1085 -0.003,-0.72822 -0.0223,-1.00914 -0.0832,-1.15429 -0.32259,-1.93092 -0.70186,-2.27755 -0.0535,-0.0489 -0.084,-0.0676 -0.0995,-0.061 -0.48882,0.21054 -0.87983,0.13228 -1.28083,-0.25636 -0.36692,-0.35561 -0.70072,-0.9528 -1.11948,-2.00283 -0.0607,-0.15238 -0.11783,-0.28393 -0.12679,-0.29232 -0.0142,-0.0133 -0.29624,-0.0616 -0.3577,-0.0611 -0.0322,2.1e-4 -0.0534,0.13473 -0.0534,0.33894 0,0.21504 0.0432,0.42685 0.15098,0.74226 0.0455,0.13305 0.11999,0.35098 0.16552,0.48431 0.12521,0.36671 0.14764,0.48437 0.14665,0.76882 -6.7e-4,0.19806 -0.006,0.25296 -0.0312,0.34539 -0.029,0.10471 -0.10967,0.29876 -0.12431,0.29876 -0.003,0 -0.054,-0.0227 -0.11156,-0.0503 -0.14204,-0.0683 -0.23258,-0.16091 -0.30394,-0.31083 -0.0306,-0.0642 -0.12221,-0.29999 -0.20365,-0.52391 -0.0814,-0.22394 -0.18119,-0.48886 -0.22165,-0.58875 -0.59696,-1.47375 -1.60741,-2.7984 -2.9986,-3.93107 -0.20867,-0.16987 -0.68223,-0.52402 -0.70076,-0.52403 -0.008,-2e-5 -0.0369,0.0627 -0.0642,0.13932 l -0.0497,0.13936 0.0763,0.10649 c 0.2362,0.32942 0.50877,0.59269 1.19473,1.15392 0.54917,0.44933 0.79448,0.68064 1.01503,0.95711 0.20178,0.25295 0.20915,0.2678 0.27105,0.54559 0.12614,0.56611 0.25065,1.40856 0.23515,1.59102 l -0.005,0.0521 -0.24158,-0.29581 c -1.24044,-1.51868 -2.38967,-2.74042 -3.02873,-3.21984 -0.14797,-0.11098 -0.36003,-0.24129 -0.39262,-0.24121 -0.0119,0 -0.1027,0.0696 -0.20178,0.15471 -0.22944,0.19708 -0.37296,0.30374 -0.474,0.35228 -0.11944,0.0573 -0.28904,0.0621 -0.50248,0.0138 -0.0876,-0.0198 -0.16661,-0.0359 -0.17567,-0.0359 -0.009,0 -0.0275,0.0477 -0.0413,0.10731 -0.0288,0.12371 -0.0331,0.38255 -0.013,0.78634 l 0.0124,0.24955 -0.0577,0.0399 c -0.0873,0.0605 -0.23136,0.21986 -0.31581,0.34942 -0.15425,0.23665 -0.24309,0.46565 -0.41306,1.06471 -0.17127,0.60371 -0.25947,0.82764 -0.42099,1.06893 -0.22078,0.32979 -0.53281,0.53408 -0.95993,0.62848 l -0.0787,0.0173 -0.0563,0.13591 c -0.0311,0.0748 -0.0627,0.15261 -0.0706,0.17299 -0.0127,0.0334 -0.0164,0.0351 -0.0379,0.0167 -0.10637,-0.0909 -0.32774,-0.18843 -0.72341,-0.31879 -0.47981,-0.15808 -0.68143,-0.25209 -0.86073,-0.40132 -0.0676,-0.0563 -0.0942,-0.0908 -0.13035,-0.16905 -0.20077,-0.43468 -0.6097,-2.26729 -0.719,-3.22217 -0.0265,-0.23135 -0.0271,-0.48632 -8.3e-4,-0.55848 0.0727,-0.20364 0.24488,-0.2183 1.47908,-0.12595 0.60369,0.0452 0.94055,0.0505 1.05003,0.0166 0.0452,-0.0139 0.0931,-0.041 0.11687,-0.0658 0.13965,-0.14576 -0.0698,-0.50133 -0.87745,-1.48963 -0.17536,-0.21457 -0.9322,-1.12537 -1.00985,-1.21527 -0.0187,-0.0215 -0.0173,-0.0267 0.0124,-0.0522 0.10341,-0.0885 0.33162,-0.22051 0.71874,-0.41551 0.56861,-0.28644 0.74589,-0.40579 0.92826,-0.62495 l 0.0657,-0.0789 -0.0192,-0.0737 c -0.0878,-0.33839 0.0991,-0.84264 0.5245,-1.41458 0.10376,-0.13957 0.23449,-0.29625 0.4301,-0.51555 l 0.0613,-0.0687 0.17169,0.0362 c 0.0944,0.02 0.17324,0.0348 0.17515,0.0328 0.002,-0.003 -0.0937,-0.13687 -0.2124,-0.30004 -0.30065,-0.41314 -0.48555,-0.69183 -0.55071,-0.82998 -0.0454,-0.0962 -0.0566,-0.13677 -0.0616,-0.22164 -0.006,-0.11039 0.0151,-0.2626 0.0391,-0.27745 0.0187,-0.0118 0.34399,-0.0616 0.35056,-0.0539 0.002,0.003 0.0722,0.0993 0.15424,0.21361 0.56051,0.78038 0.99318,1.10915 1.54009,1.17023 0.36605,0.0409 0.8248,-0.0995 1.2817,-0.39232 l 0.0789,-0.0506 -0.14425,-0.2944 c -0.0793,-0.16192 -0.18455,-0.39415 -0.23381,-0.51606 l -0.0896,-0.22163 0.0371,-0.0318 c 0.10754,-0.0922 0.21615,-0.16506 0.32704,-0.21932 0.0679,-0.0333 0.13153,-0.0605 0.14116,-0.0605 0.05,0 0.0118,-0.0441 -0.21577,-0.24882 -0.29582,-0.2662 -0.50712,-0.48638 -0.48381,-0.50416 0.003,-0.002 0.10199,-0.0216 0.22004,-0.0433 0.4022,-0.0734 0.5512,-0.12137 0.66389,-0.21394 l 0.0475,-0.039 -0.0308,-0.0399 c -0.0563,-0.0729 -0.29831,-0.31193 -0.37889,-0.3744 -0.0436,-0.0338 -0.12157,-0.0816 -0.17315,-0.10589 -0.0827,-0.0393 -0.10766,-0.0444 -0.2118,-0.0444 -0.16772,0 -0.25926,0.0469 -0.44966,0.23028 l -0.14231,0.13707 -0.0813,-0.0605 c -0.27207,-0.20221 -0.47605,-0.53024 -0.69047,-1.11033 -0.0507,-0.13716 -0.12664,-0.34286 -0.16878,-0.45716 -0.0958,-0.25978 -0.22727,-0.53613 -0.3233,-0.6796 -0.23726,-0.35442 -0.57485,-0.51366 -0.98353,-0.46398 -0.0723,0.008 -0.13612,0.0206 -0.14164,0.026 -0.006,0.006 0.0408,0.0816 0.10305,0.169 0.20239,0.2844 0.39562,0.57601 0.44016,0.66425 0.0486,0.0961 0.0971,0.26904 0.0971,0.34554 0,0.0429 -0.0149,0.0659 -0.10565,0.16478 l -0.10566,0.11487 0.009,0.0785 c 0.0149,0.12677 0.11428,0.40234 0.222,0.61541 0.11874,0.23489 0.23985,0.43731 0.54159,0.90516 0.40236,0.62386 0.55005,0.88993 0.64065,1.15416 0.046,0.13389 0.0506,0.16131 0.0511,0.29975 3.3e-4,0.13948 -0.002,0.15907 -0.0384,0.23153 -0.0692,0.14094 -0.22314,0.2448 -0.4481,0.30234 l -0.1073,0.0274 -0.0607,-0.059 c -0.0872,-0.0848 -0.22128,-0.26751 -0.43453,-0.59234 -0.10258,-0.15619 -0.23352,-0.34046 -0.29109,-0.40947 -0.17107,-0.2051 -0.36951,-0.34865 -0.59065,-0.42726 -0.15114,-0.0538 -0.15063,-0.0539 -0.16093,0.0644 -0.005,0.0552 -0.0122,0.13561 -0.0164,0.1786 l -0.008,0.0781 -0.14599,0.0779 -0.14598,0.0779 -0.12641,-0.0669 c -0.48603,-0.25705 -0.93097,-0.62148 -1.26335,-1.03475 -0.24125,-0.29997 -0.48709,-0.74273 -0.62299,-1.12206 -0.12898,-0.35997 -0.22186,-0.81553 -0.25679,-1.25948 -0.0203,-0.25788 -0.009,-0.91227 0.0202,-1.17164 0.0651,-0.57831 0.1854,-1.1427 0.35485,-1.6661 0.0642,-0.19825 0.14132,-0.40523 0.15677,-0.42068 0.009,-0.009 0.43129,0.0833 0.80418,0.17658 1.91915,0.4798 3.30636,1.12662 3.84003,1.7905 0.0866,0.10766 0.21651,0.34422 0.23612,0.42985 l 0.009,0.0401 -0.31147,-0.007 -0.31145,-0.007 0.37526,0.32712 c 0.58007,0.50563 0.63817,0.55464 0.64257,0.54208 0.002,-0.006 -0.0107,-0.0716 -0.0297,-0.14484 -0.0186,-0.0732 -0.0297,-0.13308 -0.0249,-0.13303 0.005,0 0.0802,0.0124 0.16739,0.0274 0.0872,0.015 0.16041,0.0253 0.1628,0.0229 0.002,-0.002 -0.0526,-0.0692 -0.12228,-0.1486 -0.16518,-0.18814 -0.27801,-0.33989 -0.32223,-0.43338 -0.0331,-0.07 -0.11918,-0.3188 -0.11918,-0.34452 0,-0.006 0.095,0.0645 0.21124,0.15727 l 0.21125,0.16867 -0.47881,-0.48336 c -0.26336,-0.26586 -0.50725,-0.51765 -0.54201,-0.55956 -0.0687,-0.0828 -0.16966,-0.23549 -0.15578,-0.23549 0.005,0 0.0438,0.0288 0.087,0.0638 0.14789,0.12052 -0.0231,-0.0318 -0.37872,-0.33726 -2.998,-2.57537 -6.38825,-4.68912 -10.01503,-6.24413 -4.20303,-1.80206 -8.71419,-2.84591 -13.31875,-3.08184 -0.9726,-0.0498 -2.49746,-0.0635 -3.35913,-0.0302 -1.54014,0.0597 -2.90094,0.18138 -4.294128,0.38388 -7.006542,1.01845 -13.570309,3.92046 -19.082791,8.43699 -0.652787,0.53484 -1.391254,1.18049 -1.372097,1.19964 0.02057,0.0206 0.273141,0.0915 0.377436,0.10589 0.05424,0.007 0.101518,0.0167 0.105181,0.0202 0.01619,0.0162 0.01973,0.28769 0.0071,0.52862 -0.0071,0.14475 -0.01206,0.26511 -0.0095,0.26743 0.0023,0.003 0.07469,-0.0469 0.160715,-0.10943 0.626774,-0.45549 0.940806,-0.58031 1.460378,-0.5804 0.161802,0 0.570083,0.032 0.583934,0.046 0.0012,8.4e-4 -0.02813,0.0728 -0.06559,0.15884 -0.03747,0.0861 -0.06808,0.15834 -0.06808,0.16077 0,0.002 0.05164,-0.0223 0.114754,-0.0552 0.188547,-0.0978 0.299176,-0.1229 0.543161,-0.12287 0.243088,0 0.31025,0.0121 0.777752,0.13884 0.32956,0.0893 0.57066,0.13589 0.664735,0.12817 l 0.0535,-0.005 0.05967,-0.15766 c 0.03283,-0.0867 0.103291,-0.31112 0.156508,-0.49869 0.05333,-0.18757 0.118992,-0.40844 0.146092,-0.49083 0.02708,-0.0823 0.047,-0.1517 0.04433,-0.15405 -0.0025,-0.002 -0.123333,0.0643 -0.268083,0.14815 -0.352375,0.20407 -0.584992,0.32271 -0.703044,0.35857 -0.08344,0.0253 -0.118559,0.0283 -0.242567,0.0214 -0.07977,-0.005 -0.146663,-0.0107 -0.148672,-0.0124 -0.0023,-0.002 -0.01501,-0.0838 -0.02883,-0.18106 l -0.02529,-0.17692 0.10329,-0.10448 c 0.249599,-0.25252 0.479001,-0.35556 2.187984,-0.98269 0.255225,-0.0936 0.474634,-0.17453 0.487592,-0.1797 0.01808,-0.008 0.02883,0.003 0.04617,0.0438 0.03992,0.0936 0.08816,0.30539 0.105183,0.46152 l 0.01642,0.15161 0.08438,0.0296 c 0.140575,0.0493 0.298367,0.0493 0.67635,3e-4 0.180825,-0.0234 0.338225,-0.0427 0.349767,-0.0427 0.0155,0 0.02092,0.0155 0.02092,0.0588 -1.5e-4,0.11828 -0.06925,0.52134 -0.119433,0.6961 -0.005,0.0153 0.07283,-0.0917 0.1716,-0.23771 0.427667,-0.63214 0.520275,-0.71885 0.804417,-0.75327 0.07117,-0.008 0.130975,-0.0136 0.133066,-0.0107 0.0025,0.002 0.04267,0.0747 0.09006,0.16037 l 0.08628,0.15576 -0.06083,0.0696 c -0.09183,0.10495 -0.185767,0.26981 -0.239542,0.42029 -0.0265,0.0741 -0.04808,0.14546 -0.04783,0.15848 1.59e-4,0.013 0.0375,0.0548 0.08283,0.0929 0.09561,0.0802 0.216567,0.21157 0.317858,0.34541 0.08117,0.10731 0.08308,0.0995 -0.04525,0.19597 -0.183075,0.13764 -0.334808,0.20948 -0.743583,0.35213 -0.309459,0.10802 -0.45645,0.16988 -0.586884,0.24712 -0.103175,0.0611 -0.2858,0.21305 -0.2858,0.23779 0,0.0153 0.362375,0.10163 0.603134,0.14358 0.308058,0.0537 0.484733,0.0684 0.723425,0.0604 0.327267,-0.0107 0.509717,-0.0681 0.661675,-0.20695 0.147258,-0.13458 0.199408,-0.27691 0.210608,-0.57475 l 0.0075,-0.19664 0.147034,-0.0345 c 0.2177,-0.0511 0.624916,-0.10743 0.624916,-0.0865 0,0.005 -0.03983,0.0969 -0.0884,0.20574 -0.1373,0.30693 -0.193016,0.51149 -0.211983,0.77842 -0.01067,0.14329 -0.01533,0.1413 0.124108,0.0478 0.138234,-0.0927 0.337617,-0.30375 0.458,-0.48488 0.05883,-0.0886 0.1993,-0.34109 0.311992,-0.56103 0.112633,-0.21994 0.231458,-0.44354 0.263925,-0.49687 0.0815,-0.13401 0.2019,-0.29935 0.256108,-0.3519 l 0.04525,-0.044 0.08317,0.10093 c 0.2277,0.27629 0.263133,0.36228 0.330233,0.80158 0.01917,0.12511 0.03825,0.25089 0.04275,0.27948 0.0058,0.0384 0.01583,0.0537 0.03792,0.0588 0.01642,0.003 0.159733,0.0348 0.318367,0.0693 0.158641,0.0343 0.302733,0.0659 0.320216,0.0703 0.03017,0.007 0.03275,0.0181 0.04942,0.20086 0.0094,0.10614 0.02158,0.1929 0.02633,0.1929 0.01867,0 0.52675,-0.29836 0.638409,-0.37487 0.06792,-0.0466 0.190966,-0.15481 0.290892,-0.25601 l 0.173158,-0.17537 -0.07625,-0.0396 c -0.119675,-0.0622 -0.332509,-0.14311 -0.638834,-0.2428 -0.155275,-0.0506 -0.331058,-0.1105 -0.390608,-0.13326 l -0.108258,-0.0413 0.0095,-0.12676 c 0.03075,-0.43122 0.116875,-0.58967 0.434908,-0.80037 0.119158,-0.0789 0.5407,-0.29195 0.772392,-0.39027 l 0.154792,-0.0658 0.1638,0.1059 c 0.09006,0.0583 0.165383,0.10719 0.1673,0.10885 0.0025,8.3e-4 -0.02767,0.0585 -0.06583,0.12638 -0.08167,0.14536 -0.176033,0.3641 -0.234933,0.54437 -0.02317,0.0708 -0.04208,0.13103 -0.04208,0.13376 0,0.002 0.07633,-0.0356 0.169683,-0.0851 1.764375,-0.93651 3.276167,-1.09957 4.471417,-0.48229 0.62485,0.3227 1.204892,0.92155 1.5519,1.60221 0.04608,0.0904 0.09123,0.1667 0.100217,0.16941 0.0094,0.002 0.09431,0.0216 0.189525,0.0419 0.402433,0.086 0.940563,0.29912 1.392123,0.55126 0.12121,0.0677 0.3942,0.24385 0.46404,0.29948 l 0.0347,0.0275 -0.0692,0.0712 c -0.14291,0.14687 -0.3193,0.24948 -0.52638,0.30622 -0.0955,0.0261 -0.14627,0.0304 -0.36708,0.0304 -0.21309,0 -0.308762,-0.007 -0.567929,-0.044 -0.38965,-0.055 -0.578575,-0.0663 -0.740883,-0.0447 -0.06842,0.009 -0.126725,0.0189 -0.1295,0.0217 -0.01067,0.0107 0.08757,0.18566 0.157117,0.27854 0.04058,0.0542 0.140866,0.1757 0.222883,0.27013 0.191725,0.22071 0.259225,0.31295 0.325833,0.44527 0.06775,0.13448 0.09514,0.24925 0.09372,0.39132 -8.33e-4,0.12502 -0.02608,0.26364 -0.04692,0.26233 -0.0075,-3.4e-4 -0.05683,-0.0213 -0.109433,-0.0461 -0.140367,-0.0664 -0.316583,-0.12057 -0.472958,-0.14535 -0.07592,-0.0121 -1.138325,-0.16279 -2.361109,-0.33503 -1.2228,-0.17224 -2.225275,-0.31515 -2.227733,-0.31757 -0.0025,-0.002 -0.01067,-0.0923 -0.01867,-0.1998 l -0.01417,-0.19543 0.191334,-0.20207 0.191333,-0.20206 0.117,0.01 c 0.364617,0.0304 0.522233,-0.01 0.9105,-0.22823 0.188092,-0.10613 1.010183,-0.61463 1.0421,-0.64458 0.02225,-0.0209 0.01875,-0.0283 -0.08993,-0.19526 l -0.07567,-0.11605 -0.07058,0.0358 c -0.03875,0.0196 -0.3382,0.18168 -0.665275,0.36001 -0.327092,0.17833 -0.600059,0.32424 -0.606592,0.32424 -0.0075,0 -0.078,-0.0428 -0.158883,-0.095 l -0.146992,-0.095 0.29835,-0.24783 0.298358,-0.24783 2e-4,-0.20244 2.17e-4,-0.20245 -0.13205,-0.0638 c -0.16225,-0.0785 -0.289058,-0.15974 -0.411517,-0.26382 l -0.09336,-0.0793 -0.059,0.0404 c -0.09798,0.0672 -0.164333,0.0968 -0.661567,0.29521 -0.388466,0.15508 -0.477575,0.19545 -0.476158,0.21576 8.33e-4,0.0137 0.0094,0.0843 0.019,0.1566 0.01725,0.1309 0.01067,0.46687 -0.01067,0.58874 -0.0094,0.0523 -0.01608,0.0586 -0.120758,0.11358 -0.061,0.032 -0.188733,0.089 -0.283958,0.12677 -0.164467,0.0651 -0.296709,0.10648 -0.907759,0.28354 -0.269883,0.0782 -0.594508,0.19155 -0.636442,0.22222 -0.01942,0.0142 0.01758,0.0224 0.216675,0.048 0.442026,0.0567 0.613367,0.10448 0.813717,0.2267 0.108842,0.0664 0.3258,0.23698 0.530992,0.41738 l 0.134925,0.11863 -0.05558,0.10815 c -0.03058,0.0594 -0.08852,0.14701 -0.128825,0.19446 -0.07425,0.0876 -0.234209,0.2254 -0.26145,0.2254 -0.02383,0 -0.155375,-0.11605 -0.372509,-0.32899 l -0.20225,-0.1983 -0.214692,0.0893 c -0.118066,0.0492 -0.2945,0.1273 -0.392025,0.17361 -0.0975,0.0463 -0.18255,0.0841 -0.18895,0.0841 -0.0058,0 -0.08544,-0.039 -0.175566,-0.0866 l -0.163942,-0.0866 0.06617,-0.18007 c 0.03642,-0.099 0.0665,-0.18427 0.06692,-0.18936 6.59e-4,-0.0107 -0.283858,-0.19159 -0.301491,-0.19159 -0.0058,0 -0.09786,0.1574 -0.203125,0.34976 -0.105292,0.19239 -0.193,0.35181 -0.194984,0.35428 -0.0025,0.003 -0.02125,-0.005 -0.043,-0.0156 -0.05575,-0.0285 -0.2096,-0.0607 -0.375158,-0.0787 -0.25585,-0.0277 -0.407725,0.0107 -0.782158,0.19841 -0.652834,0.32716 -1.176942,0.76496 -1.462059,1.22132 -0.2798,0.44784 -0.349491,0.93956 -0.204166,1.44067 0.0897,0.30934 0.198625,0.50588 0.38125,0.68797 0.103883,0.10365 0.140033,0.12951 0.264291,0.18946 0.320825,0.15478 0.676209,0.18574 1.369825,0.11931 0.3175,-0.0304 0.796825,-0.0411 0.96235,-0.0216 0.155909,0.0184 0.328975,0.0594 0.425517,0.10093 0.06392,0.0274 0.06533,0.0294 0.08615,0.12109 0.01183,0.0513 0.05592,0.28222 0.09832,0.5133 0.07967,0.43411 0.1416,0.72067 0.155683,0.72067 0.005,0 0.07608,-0.0348 0.159284,-0.0772 0.08317,-0.0426 0.153933,-0.0746 0.157266,-0.0713 0.0033,0.003 -0.0058,0.0833 -0.02125,0.17778 -0.02525,0.1591 -0.04358,0.33199 -0.06333,0.59693 -0.0095,0.12554 -0.01375,0.12112 0.152383,0.15589 0.155025,0.0325 0.393625,0.0427 0.515284,0.0222 0.09418,-0.0159 0.10045,-0.0192 0.113567,-0.0607 0.06325,-0.19963 0.08415,-0.58395 0.05675,-1.04587 -0.024,-0.40511 -0.02183,-0.76323 0.0058,-0.94313 0.01217,-0.0793 0.02375,-0.14599 0.02592,-0.1481 0.0083,-0.008 0.258216,0.0525 0.479,0.11512 0.214125,0.0608 0.228541,0.063 0.263191,0.0426 0.111684,-0.0662 0.133792,-0.18478 0.121934,-0.65481 -0.0083,-0.31468 -0.03983,-0.99575 -0.0565,-1.20703 l -0.0075,-0.085 0.186833,-0.0882 c 0.134858,-0.0637 0.188458,-0.096 0.192692,-0.11594 0.129375,-0.61252 0.293566,-0.97469 0.561783,-1.23921 0.553792,-0.54613 1.480092,-0.43594 2.627,0.31246 0.174809,0.11405 0.377117,0.2596 0.494975,0.35605 l 0.0405,0.0333 -0.143075,0.13714 c -0.197558,0.18933 -0.364358,0.37751 -0.355375,0.40094 0.0033,0.0107 0.0515,0.078 0.105534,0.14987 0.111091,0.14775 0.08817,0.13723 0.353225,0.16271 0.220858,0.0212 0.48245,0.009 0.616416,-0.0291 0.250725,-0.071 0.416059,-0.18594 0.860892,-0.59841 l 0.144717,-0.13417 0.201641,0.0164 0.20165,0.0164 0.124509,0.15237 c 0.1587,0.19428 0.42314,0.49149 0.69638,0.78268 0.49745,0.53018 1.73926,1.76072 2.71201,2.6874 0.20729,0.19748 0.25135,0.24604 0.24441,0.26938 -0.0192,0.0645 -0.16132,0.33381 -0.28924,0.54795 -0.21882,0.36633 -0.34207,0.65175 -0.35625,0.82496 l -0.005,0.0511 0.4017,0.10023 c 0.49246,0.12293 0.7033,0.18508 0.86647,0.25543 0.18595,0.0802 0.26838,0.135 0.37867,0.25187 0.11156,0.11819 0.21224,0.29915 0.34012,0.61112 l 0.0722,0.17612 -0.13613,0.18108 -0.13613,0.18109 -0.0901,-0.007 c -0.0495,-0.003 -0.1555,-0.0137 -0.2355,-0.0214 -0.20554,-0.02 -0.86572,-0.0408 -1.32287,-0.0416 -0.36059,-6.6e-4 -0.70128,-0.0138 -0.92461,-0.0358 l -0.0935,-0.009 v -0.10719 c 0,-0.27419 0.0726,-0.50738 0.28901,-0.92816 0.25002,-0.48617 0.30026,-0.59211 0.35407,-0.74685 0.0389,-0.11193 0.0911,-0.33273 0.0911,-0.38558 0,-0.02 -0.5182,0.0397 -0.76185,0.0878 -0.85915,0.16955 -1.44012,0.53777 -1.62268,1.02845 l -0.0326,0.0877 -0.16623,0.0838 -0.166225,0.0839 -0.176134,-0.0582 c -0.171791,-0.0566 -0.176316,-0.0592 -0.183375,-0.10235 -0.01925,-0.11747 -0.03525,-0.27283 -0.0505,-0.48857 l -0.01667,-0.23657 -0.472384,0.15092 c -1.921317,0.61387 -2.268042,0.76826 -2.376517,1.05821 -0.02733,0.073 -0.06733,0.33079 -0.05342,0.34464 0.0033,0.003 0.115458,-0.0453 0.248108,-0.10909 0.88865,-0.42747 1.3682,-0.59259 1.723367,-0.59335 0.180958,-3.3e-4 0.302825,0.0341 0.488275,0.13775 l 0.114283,0.0639 v 0.14746 c 0,0.17116 -0.02967,0.36519 -0.07825,0.51166 l -0.03417,0.10306 0.151525,0.15153 0.151508,0.15152 0.150525,-0.0302 c 0.176133,-0.0355 0.540944,-0.067 0.557504,-0.0482 0.006,0.007 0.0443,0.10305 0.0847,0.21351 0.0406,0.1105 0.0787,0.20657 0.0849,0.21354 0.007,0.007 0.05,-0.003 0.10519,-0.0266 0.11955,-0.05 0.43486,-0.2065 0.50464,-0.25055 l 0.0533,-0.0336 0.0631,0.0857 c 0.13862,0.18834 0.38616,0.63481 0.35769,0.64518 -0.007,0.002 -0.69286,0.3213 -1.525086,0.70869 -1.058634,0.49278 -1.516867,0.69966 -1.525592,0.68879 -0.04208,-0.0525 -0.128125,-0.25952 -0.215867,-0.51947 -0.113333,-0.33585 -0.182366,-0.50037 -0.209916,-0.50037 -0.0275,0 -0.501142,0.17377 -0.684492,0.25119 -0.577859,0.24398 -0.764409,0.48128 -0.913517,1.16212 -0.03783,0.17251 -0.150933,0.83361 -0.174875,1.02181 -0.0058,0.0501 -0.01725,0.0775 -0.03467,0.0867 -0.01408,0.007 -0.290641,0.0197 -0.624958,0.0277 -0.329792,0.008 -0.631842,0.0173 -0.671192,0.0214 -0.0695,0.007 -0.07408,0.0107 -0.159308,0.11393 -0.183917,0.22328 -0.608967,0.69388 -0.8738,0.96743 l -0.069,0.0712 0.065,0.23184 c 0.05367,0.19131 0.06183,0.23477 0.04667,0.24866 -0.01067,0.009 -0.07883,0.0678 -0.152734,0.13032 l -0.1343,0.11345 -0.067,-0.009 c -0.09892,-0.0131 -0.3108,0.017 -0.453408,0.0647 -0.195408,0.0651 -0.186308,0.0466 -0.132817,0.27181 0.05617,0.23659 0.108842,0.37974 0.266425,0.72413 l 0.123609,0.27013 -0.05783,0.11086 c -0.1327,0.2545 -0.311333,0.49645 -0.546175,0.73977 -0.207942,0.21546 -0.408175,0.38917 -0.891283,0.77329 -0.226,0.17969 -0.454542,0.36465 -0.507867,0.41102 -0.551067,0.47918 -0.838467,0.84491 -0.960808,1.22264 -0.0655,0.20225 -0.07808,0.29476 -0.07725,0.56578 8.33e-4,0.31488 0.02317,0.44942 0.179233,1.08744 0.161633,0.66058 0.188283,0.8105 0.197267,1.11009 0.01067,0.36623 -0.02917,0.57711 -0.162117,0.85098 -0.05992,0.12355 -0.221783,0.36617 -0.244217,0.36617 -0.03583,0 -0.210391,-0.11275 -0.2667,-0.17231 -0.176325,-0.18643 -0.270041,-0.47107 -0.666433,-2.02404 -0.09856,-0.38617 -0.181842,-0.70474 -0.185058,-0.70796 -0.0033,-0.003 -0.05842,-0.009 -0.1226,-0.0141 -0.121584,-0.008 -0.379084,0.0122 -0.5096,0.0413 l -0.07567,0.0169 -0.101517,-0.10625 c -0.115825,-0.1212 -0.244958,-0.23155 -0.4047,-0.34574 l -0.110625,-0.0791 -0.08,0.0249 c -0.145867,0.0454 -0.403033,0.0976 -0.7561,0.15353 -0.410267,0.065 -0.650017,0.10838 -0.669958,0.12129 -0.0083,0.005 -0.09395,0.14019 -0.1912,0.30019 -0.09727,0.15998 -0.181084,0.29556 -0.186217,0.30127 -0.005,0.006 -0.106958,-0.0142 -0.226175,-0.0442 -1.400508,-0.35214 -2.383138,-0.03 -2.944228,0.96508 -0.47659,0.84527 -0.619884,2.24742 -0.389501,3.81147 0.275551,1.87069 0.71275,2.72598 1.315021,2.57257 0.233291,-0.0594 0.404316,-0.17631 0.7206,-0.4925 0.277033,-0.27698 0.443383,-0.4766 0.875416,-1.05057 0.254934,-0.3387 0.321892,-0.41876 0.403917,-0.48294 0.223458,-0.17486 0.509708,-0.27411 0.839517,-0.29109 0.324983,-0.0168 0.586983,0.0651 0.687875,0.21478 0.04317,0.0639 0.09868,0.31201 0.116408,0.51942 0.03508,0.41135 -0.03667,0.78132 -0.2988,1.54018 -0.222767,0.64485 -0.289175,0.87746 -0.332133,1.16363 -0.02125,0.14127 -0.02775,0.46791 -0.01192,0.59913 l 0.0083,0.0727 0.105417,0.0333 c 0.236908,0.0748 0.426333,0.0772 0.957317,0.0118 0.379992,-0.0468 0.786075,-0.0523 0.9269,-0.0127 0.280633,0.0791 0.469792,0.25702 0.592142,0.55713 0.142325,0.34911 0.170058,0.73567 0.114166,1.59093 -0.03367,0.51528 -0.03058,0.93973 0.0083,1.1581 0.04808,0.26984 0.155583,0.53762 0.294183,0.73327 0.12695,0.17917 0.386625,0.4072 0.594783,0.5223 l 0.07175,0.0396 0.09454,-0.0464 c 0.132858,-0.0653 0.232217,-0.13876 0.572375,-0.42329 0.327975,-0.27429 0.307392,-0.26431 0.456333,-0.22148 0.161417,0.0464 0.3072,0.13412 0.6311,0.37963 0.240934,0.18263 0.3621,0.25514 0.513725,0.3074 0.143967,0.0497 0.132267,0.0548 0.331251,-0.14657 0.208291,-0.2108 0.321341,-0.38491 0.629208,-0.96904 0.286567,-0.54371 0.398758,-0.71894 0.5904,-0.9221 0.284542,-0.30165 0.666933,-0.47299 1.065983,-0.47767 l 0.138517,-8.3e-4 0.0094,0.11086 c 0.01375,0.1598 -0.0083,0.3949 -0.07442,0.7896 -0.05283,0.31574 -0.05792,0.36773 -0.05758,0.58874 3.25e-4,0.29015 0.02125,0.3875 0.129975,0.60459 0.07408,0.14816 0.124216,0.21367 0.124216,0.16252 0,-0.0568 0.14405,-0.60482 0.215067,-0.81799 0.161592,-0.48513 0.318583,-0.73226 0.632417,-0.99559 0.06917,-0.058 0.133341,-0.10849 0.14255,-0.11192 0.0094,-0.003 0.0785,0.0351 0.154008,0.0858 0.182425,0.12253 0.484017,0.26721 0.864509,0.41468 0.511758,0.19837 0.750191,0.30652 0.965875,0.43809 0.101633,0.0621 0.2992,0.21215 0.342,0.25992 l 0.02658,0.0297 0.09313,-0.179 c 0.15445,-0.29696 0.23545,-0.39432 0.370817,-0.44566 0.122067,-0.0463 0.341875,-0.0322 0.632667,0.0407 0.171575,0.043 0.651615,0.18065 0.855305,0.2453 0.0197,0.006 0.0398,-0.0252 0.10766,-0.16907 0.046,-0.0971 0.0858,-0.17896 0.0885,-0.18171 0.007,-0.007 0.32327,0.0412 0.34068,0.0519 0.0186,0.0118 -0.0681,0.4386 -0.18995,0.93668 l -0.0919,0.37569 0.11476,0.13867 0.11475,0.13869 0.11263,0.009 c 0.36823,0.031 0.50996,0.12924 1.63391,1.13321 0.21964,0.19618 0.40667,0.35657 0.41563,0.35642 0.009,-1.5e-4 0.10045,-0.009 0.20329,-0.0216 0.26,-0.0298 0.84206,-0.0415 1.02535,-0.0207 1.12686,0.1279 1.96788,0.90511 2.818,2.60417 l 0.15736,0.31449 -0.0508,0.0961 c -0.16321,0.30874 -0.27668,0.39854 -1.14486,0.90599 -0.15999,0.0935 -0.30366,0.17796 -0.31924,0.18764 -0.0277,0.0173 -0.0279,0.022 -0.0118,0.19578 0.009,0.098 0.0175,0.18282 0.018,0.18853 8.3e-4,0.0184 0.26828,0.0107 0.3577,-0.0107 0.19135,-0.0452 0.35528,-0.13367 0.63752,-0.3444 0.33696,-0.25157 0.49451,-0.34705 0.66459,-0.40279 l 0.0728,-0.0238 0.13897,0.12824 c 0.0765,0.0706 0.13644,0.13495 0.13333,0.14313 -0.003,0.008 -0.0221,0.0689 -0.0422,0.13504 -0.15868,0.52115 -0.39383,0.88758 -0.73758,1.14939 -0.0715,0.0543 -0.12966,0.1027 -0.12936,0.10731 3.1e-4,0.005 0.033,0.0312 0.0727,0.059 0.0398,0.0279 0.10814,0.0765 0.15198,0.10826 l 0.0798,0.0577 0.0827,-0.0789 c 0.10341,-0.0986 0.21229,-0.25773 0.35956,-0.52534 0.14249,-0.2589 0.2184,-0.37396 0.31772,-0.48156 0.0914,-0.099 0.24073,-0.20071 0.34785,-0.23686 l 0.0762,-0.0257 0.28395,0.0636 c 0.71021,0.15908 1.6113,0.43364 2.37564,0.72388 0.82661,0.31388 1.67485,0.7405 2.20397,1.10847 0.4637,0.32247 0.81262,0.6582 1.03444,0.99534 0.22061,0.33526 0.31511,0.6318 0.31415,0.98571 -8.3e-4,0.33637 0.18192,-0.0727 -1.95569,4.37527 l -1.91731,3.98955 -0.0961,0.0816 c -0.21407,0.18175 -0.50471,0.34336 -0.84405,0.46934 -0.0915,0.0339 -0.35122,0.11898 -0.57732,0.18901 -0.47656,0.14761 -0.67659,0.22064 -0.89793,0.32786 -0.40774,0.19751 -0.71952,0.48317 -1.04202,0.95474 -0.25315,0.37015 -0.43736,0.74206 -0.76852,1.55149 -0.24425,0.59701 -0.31924,0.76966 -0.44828,1.03203 -0.28629,0.58204 -0.53815,0.94299 -0.76595,1.09776 -0.33721,0.22907 -0.7412,0.2348 -1.02968,0.0145 -0.0351,-0.0267 -0.0605,-0.0402 -0.0565,-0.0299 0.003,0.0107 0.0798,0.20389 0.16849,0.43015 l 0.16129,0.41137 -0.10578,0.18429 c -0.33998,0.59229 -0.45526,0.65748 -1.36296,0.77074 l -0.31168,0.0389 -0.008,0.24837 c -0.008,0.22982 -0.0307,0.42906 -0.0519,0.45182 -0.005,0.005 -0.0525,2.6e-4 -0.10578,-0.0107 -0.1283,-0.0273 -0.45741,-0.0741 -0.52291,-0.0743 -0.0286,-1.6e-4 -0.0519,0.005 -0.0519,0.0121 0,0.007 0.0567,0.0722 0.12598,0.14541 0.12663,0.13379 0.30198,0.27692 0.40143,0.32766 0.0391,0.02 0.0514,0.0338 0.046,0.0515 -0.003,0.0133 -0.13317,0.27845 -0.2868,0.58921 l -0.27933,0.56502 0.21453,0.211 c 0.11795,0.11606 0.25364,0.24729 0.30143,0.29166 l 0.0869,0.0807 -0.0878,0.1407 c -0.0823,0.13191 -0.15595,0.25977 -0.27923,0.48485 l -0.0519,0.0948 0.0307,0.0853 c 0.0673,0.18732 0.13785,0.30146 0.26228,0.42468 0.18152,0.1798 0.34456,0.26726 0.77642,0.41661 l 0.22856,0.0791 -0.0823,0.0367 c -0.23181,0.10305 -0.34467,0.13717 -0.47432,0.14353 -0.14711,0.007 -0.22728,-0.0124 -0.45453,-0.11157 l -0.13851,-0.0604 -0.0659,-0.17816 c -0.0362,-0.098 -0.0681,-0.1803 -0.0707,-0.1829 -0.003,-0.002 -0.0438,0.0593 -0.0915,0.13751 -0.0478,0.0782 -0.0889,0.14459 -0.0914,0.14739 -0.006,0.007 -0.20119,-0.10034 -0.31768,-0.1752 -0.17683,-0.1137 -0.32291,-0.24195 -0.83805,-0.73563 -0.30361,-0.29098 -0.31483,-0.3037 -0.43456,-0.493 -0.52893,-0.83627 -0.730125,-1.35897 -0.963291,-2.5026 -0.233167,-1.14366 -0.416684,-2.34714 -1.123509,-7.36782 -0.122091,-0.86724 -0.156833,-1.07385 -0.228291,-1.35756 -0.217517,-0.86377 -0.631384,-1.47189 -1.345559,-1.97719 -0.188175,-0.13312 -0.405775,-0.2675 -0.8361,-0.51632 -0.444008,-0.25672 -0.700225,-0.41895 -0.905425,-0.5733 -0.581142,-0.43714 -0.855425,-0.82914 -1.581217,-2.25978 -0.739916,-1.4585 -1.00465,-1.87136 -1.597408,-2.4913 -0.1079,-0.11287 -0.237084,-0.25614 -0.286942,-0.31832 -0.574183,-0.71584 -0.767658,-1.46894 -0.61445,-2.3918 0.06567,-0.39583 0.216558,-0.88513 0.469758,-1.52378 0.339642,-0.85671 0.423384,-1.07568 0.507467,-1.32697 0.325283,-0.97202 0.365359,-1.65438 0.137292,-2.33706 -0.06083,-0.18208 -0.225059,-0.58139 -0.301959,-0.7342 -0.123866,-0.24611 -0.280883,-0.42387 -0.513808,-0.5817 l -0.12245,-0.083 -0.05508,0.0622 c -0.03025,0.0343 -0.11795,0.14636 -0.194884,0.24922 -0.07692,0.10281 -0.171541,0.22669 -0.210325,0.27519 -0.08675,0.1085 -0.239016,0.23736 -0.280391,0.23736 -0.01692,0 -0.11085,-0.0402 -0.208825,-0.0892 -0.908659,-0.45483 -3.075134,-2.33435 -6.135042,-5.32245 l -0.458825,-0.44804 h -0.17435 -0.174342 l -0.301619,0.33938 c -0.165891,0.18666 -0.306527,0.3394 -0.312507,0.3394 -0.01182,0 -1.571858,-1.29864 -2.233604,-1.8592 -0.806066,-0.68282 -1.25876,-1.09062 -1.471191,-1.32532 -0.258522,-0.2856 -0.332598,-0.43546 -0.356872,-0.72193 -0.04066,-0.47939 -0.163539,-1.00244 -0.395565,-1.6831 -0.377104,-1.10627 -1.051093,-2.57355 -1.873942,-4.0796 -0.356931,-0.65328 -0.75753,-1.32754 -0.796447,-1.3405 -0.04219,-0.0141 -0.0507,0.58387 -0.01182,0.79772 0.05082,0.27653 0.157701,0.58847 0.306633,0.89537 0.106009,0.21851 0.228066,0.43269 0.489767,0.85951 0.404345,0.65951 0.566939,0.95927 0.693973,1.2795 0.237154,0.59773 0.262303,1.18467 0.07481,1.74511 -0.02707,0.0809 -0.06003,0.16832 -0.07327,0.19411 l -0.02411,0.0469 -0.13325,-0.13672 c -0.385449,-0.39545 -0.601495,-0.72469 -1.135061,-1.72976 -0.263473,-0.49632 -0.392244,-0.72363 -0.537489,-0.94891 l -0.09384,-0.14545 0.151639,-0.45341 0.151639,-0.4534 -0.109437,-0.20459 c -0.824916,-1.54287 -1.407314,-2.95771 -1.684083,-4.09116 -0.276533,-1.13251 -0.313287,-2.04622 -0.125319,-3.11595 0.01938,-0.1105 0.20976,-1.04554 0.422994,-2.0779 0.886773,-4.29323 1.093556,-5.32831 1.191409,-5.96357 0.03273,-0.21235 0.0429,-0.53734 0.0182,-0.57903 -0.01217,-0.0204 -0.04148,0.0412 -0.164721,0.34631 -0.243453,0.60279 -0.334536,0.78094 -0.517622,1.01243 -0.110854,0.14016 -0.120309,0.13326 -0.10719,-0.0782 0.02742,-0.44091 0.113808,-0.74542 0.462455,-1.63038 0.08415,-0.21375 0.181928,-0.47244 0.21717,-0.57488 0.253794,-0.73783 0.264052,-1.23912 0.03498,-1.71095 -0.08994,-0.1853 -0.206584,-0.34106 -0.392117,-0.52362 l -0.152939,-0.15048 -0.07043,0.0812 c -0.315438,0.36352 -0.437271,0.46932 -0.610973,0.53064 l -0.102345,0.0362 -0.150658,0.20052 c -1.828359,2.43342 -3.422649,5.19658 -4.643556,8.04803 -2.482694,5.79834 -3.50547,12.08516 -2.998461,18.43095 0.716238,8.96469 4.470078,17.33023 10.688246,23.81914 0.33495,0.34953 1.18615,1.19487 1.494131,1.48385 4.572056,4.28997 9.969787,7.36781 15.922937,9.07943 3.184859,0.91571 6.464801,1.41537 9.866671,1.50308 0.51165,0.0131 1.77285,0.005 2.30234,-0.0143 z m -14.494263,-36.0092 c -0.07567,-0.0269 -0.123934,-0.0787 -0.172934,-0.18516 -0.108608,-0.23603 -0.08485,-0.5654 0.05108,-0.70814 0.182008,-0.19115 0.468933,-0.0202 0.550933,0.3282 0.06125,0.25992 -0.04833,0.50432 -0.253517,0.5661 -0.07858,0.0237 -0.106958,0.0235 -0.175583,-8.3e-4 z m 5.922675,-0.81264 c -0.244166,-0.12086 -0.302441,-0.66901 -0.09337,-0.87811 0.234775,-0.23478 0.603058,0.0488 0.603058,0.46436 0,0.13724 -0.0285,0.21792 -0.108375,0.30674 -0.115933,0.12895 -0.272633,0.17073 -0.401358,0.10707 z m -2.641642,-0.12188 c -0.150108,-0.0387 -0.333066,-0.10294 -0.810341,-0.28471 -0.258159,-0.0983 -0.473484,-0.16373 -0.592184,-0.17995 -0.03992,-0.006 -0.07267,-0.0141 -0.07267,-0.0192 0,-0.005 0.05708,-0.0808 0.126941,-0.16839 0.161059,-0.20199 0.483775,-0.52339 0.628567,-0.62601 0.518483,-0.36748 1.029858,-0.41725 1.541025,-0.15003 0.305592,0.15977 0.592183,0.47446 0.709767,0.77936 0.08083,0.20967 0.08258,0.3789 0.0058,0.55032 l -0.03608,0.0803 -0.03092,-0.031 c -0.05883,-0.0588 -0.190392,-0.0599 -0.5625,-0.005 -0.102817,0.0152 -0.2611,0.0427 -0.351675,0.0613 -0.222742,0.0452 -0.359267,0.0436 -0.555625,-0.007 z m -2.487716,-1.48358 c -0.333509,-0.0953 -0.869809,-0.41999 -1.356226,-0.82126 -0.06475,-0.0534 -0.205016,-0.1855 -0.311675,-0.2935 -0.170291,-0.17243 -0.203983,-0.20013 -0.276408,-0.22722 -0.195017,-0.0729 -0.427792,-0.0698 -1.053533,0.0138 -0.372784,0.0499 -0.760017,0.0675 -0.89615,0.0407 -0.141859,-0.0279 -0.226667,-0.0854 -0.279,-0.18928 -0.02658,-0.0527 -0.056,-0.22714 -0.04075,-0.24159 0.01833,-0.0173 0.461616,-0.20134 0.643691,-0.2671 0.31215,-0.11275 0.462592,-0.14965 0.7443,-0.18261 0.289609,-0.0339 0.536634,-1.4e-4 0.756225,0.1033 0.116284,0.0547 0.156125,0.0847 0.372342,0.28 0.162367,0.14662 0.288917,0.22158 0.833167,0.4936 0.646966,0.32334 0.8958,0.47724 1.102167,0.68168 0.155941,0.15447 0.199658,0.24024 0.198425,0.38936 -8.34e-4,0.12355 -0.033,0.1899 -0.108492,0.22579 -0.063,0.0299 -0.212242,0.0273 -0.327942,-0.006 z m -1.155376,-2.8592 c -0.07017,-0.0257 -0.154583,-0.1191 -0.174508,-0.19309 -0.02442,-0.0908 -0.0094,-0.19459 0.03733,-0.26135 0.05933,-0.0844 0.144184,-0.1235 0.267034,-0.12311 0.21015,6.6e-4 0.362008,0.13253 0.361866,0.31422 -1.5e-4,0.10802 -0.0695,0.19447 -0.199941,0.24897 -0.07642,0.0319 -0.224042,0.0393 -0.29175,0.0143 z m 43.807102,-9.44901 c -0.13444,-0.0429 -0.37807,-0.2706 -0.6445,-0.60233 -0.13769,-0.17145 -0.29281,-0.38266 -0.32447,-0.44182 -0.0347,-0.0647 0.0566,-0.1157 0.20649,-0.1157 0.39677,2.8e-4 0.86212,0.32894 0.96567,0.68209 0.0266,0.0907 0.0302,0.30442 0.007,0.37572 -0.0333,0.10011 -0.10554,0.13527 -0.20974,0.102 z m -2.40672,-1.57958 c -0.23443,-0.11676 -0.42161,-0.49905 -0.42359,-0.86494 -8.3e-4,-0.23707 0.0438,-0.33246 0.15679,-0.33246 0.0311,0 0.0803,0.0122 0.10955,0.0269 0.20315,0.10365 0.39263,0.54463 0.39312,0.91496 2.2e-4,0.15558 -0.0269,0.23907 -0.088,0.27066 -0.0528,0.0272 -0.0653,0.026 -0.14783,-0.0153 z m -2.14367,-0.14397 c -0.0153,-0.006 -0.0433,-0.0282 -0.0623,-0.0488 -0.0291,-0.0313 -0.0344,-0.0501 -0.0332,-0.11665 0.003,-0.22137 0.084,-0.33976 0.18278,-0.27057 0.0541,0.0379 0.11688,0.1819 0.12433,0.28529 0.006,0.0853 0.003,0.0951 -0.0291,0.12813 -0.0277,0.0278 -0.049,0.0356 -0.0952,0.0348 -0.0328,-3.3e-4 -0.072,-0.006 -0.0872,-0.0122 z m -4.46334,-6.32753 c -0.0579,-0.0288 -0.0823,-0.0839 -0.0931,-0.21156 -0.005,-0.0571 -0.0122,-0.12624 -0.0161,-0.15354 l -0.007,-0.0497 -0.0996,0.0194 c -0.0611,0.0119 -0.15849,0.0175 -0.25197,0.0147 -0.12803,-0.003 -0.16455,-0.0107 -0.22864,-0.0402 -0.14445,-0.067 -0.22501,-0.185 -0.25024,-0.36641 -0.0399,-0.28708 0.0986,-0.75438 0.32268,-1.08857 l 0.0617,-0.0921 -0.10517,-0.0593 c -0.28178,-0.15898 -0.77771,-0.48083 -1.09217,-0.70878 -1.02509,-0.74311 -1.36796,-1.26049 -1.00053,-1.50979 0.25467,-0.17281 0.59286,-0.23387 1.13991,-0.20584 0.50043,0.0257 0.69358,0.0859 0.79825,0.24903 0.0552,0.086 0.0786,0.19876 0.0969,0.46771 0.0311,0.45516 0.11955,0.63946 0.47777,0.99535 0.15827,0.15723 0.30787,0.28189 0.71445,0.59535 0.49944,0.38506 0.7055,0.58067 0.92833,0.88133 0.2029,0.27377 0.27393,0.43511 0.28664,0.65115 0.009,0.16825 -0.023,0.29279 -0.10199,0.38493 -0.067,0.0783 -0.11806,0.0983 -0.25029,0.0981 -0.11955,-2e-4 -0.21397,-0.0194 -0.44025,-0.0895 -0.38158,-0.11821 -0.5177,-0.13654 -0.57998,-0.0781 -0.0194,0.0182 -0.0577,0.0866 -0.0851,0.15212 -0.0274,0.0655 -0.0598,0.13016 -0.072,0.14363 -0.0272,0.0302 -0.0925,0.0304 -0.15242,6.6e-4 z m -2.07483,-0.38335 c -0.32686,-0.10365 -0.63727,-0.45759 -0.78226,-0.89193 -0.0811,-0.24289 -0.10257,-0.38489 -0.10305,-0.68171 -3.3e-4,-0.23575 0.003,-0.28599 0.0308,-0.39479 0.0697,-0.27693 0.20499,-0.45233 0.3836,-0.49719 0.51289,-0.12885 0.93053,0.27636 1.08885,1.05646 0.0401,0.19711 0.0498,0.54818 0.0207,0.74483 -0.0644,0.43638 -0.24668,0.68509 -0.50017,0.68268 -0.0457,-3.3e-4 -0.10801,-0.008 -0.13852,-0.0183 z m -16.93629,-4.37648 c -0.098,-0.0367 -0.17259,-0.0923 -0.33637,-0.25132 -0.24887,-0.24152 -0.30313,-0.26206 -0.62418,-0.2364 -0.18216,0.0145 -0.25469,-8.4e-4 -0.45907,-0.10294 -0.25943,-0.12845 -0.87146,-0.52951 -1.00551,-0.65892 -0.18909,-0.18252 -0.41414,-0.57206 -0.4357,-0.75417 -0.0107,-0.0907 0.002,-0.13423 0.0477,-0.15821 0.0282,-0.0149 0.0325,-0.022 0.0172,-0.0274 -0.0118,-0.003 -0.0817,-0.0272 -0.1564,-0.0515 -0.28632,-0.0933 -0.45432,-0.23873 -0.59237,-0.51293 -0.1473,-0.29258 -0.14854,-0.46869 -0.006,-0.88493 0.039,-0.11416 0.0901,-0.3064 0.0901,-0.33918 0,-0.002 -0.0316,-0.0153 -0.0702,-0.0282 -0.225,-0.0747 -0.5046,-0.36412 -0.6021,-0.62316 -0.0461,-0.1225 -0.0474,-0.25975 -0.003,-0.32684 0.0749,-0.11322 0.34933,-0.17792 0.63815,-0.15056 0.21503,0.0203 0.29966,0.0578 0.35011,0.15476 0.0298,0.0572 0.0234,0.19917 -0.0159,0.3551 l -0.0353,0.14034 0.0276,0.0622 c 0.049,0.11086 0.16394,0.14789 0.28624,0.0923 0.26484,-0.1203 0.16357,-0.48453 -0.26694,-0.96009 -0.16413,-0.18131 -0.21373,-0.21905 -0.28792,-0.21905 -0.11063,0 -0.22626,0.0683 -0.63944,0.37776 -0.19411,0.14538 -0.25511,0.18454 -0.26638,0.17098 -0.0273,-0.033 -0.0825,-0.19775 -0.10388,-0.31089 -0.0118,-0.062 -0.0312,-0.25152 -0.043,-0.42093 -0.0373,-0.52955 -0.096,-0.71196 -0.29159,-0.90473 -0.14217,-0.1401 -0.44051,-0.27435 -0.83013,-0.37357 -0.23788,-0.0606 -0.35536,-0.0735 -0.81802,-0.0902 -0.92631,-0.0333 -1.116027,-0.10589 -1.14076,-0.43633 l -0.0083,-0.11086 -0.05175,0.10838 c -0.06675,0.13977 -0.187808,0.32577 -0.282766,0.43439 -0.09324,0.10672 -0.226434,0.19829 -0.288334,0.19829 -0.03692,0 -0.129975,-0.0627 -0.521333,-0.35071 -0.262067,-0.19289 -0.487392,-0.35476 -0.500725,-0.35973 -0.03933,-0.0147 -0.028,-0.0464 0.03467,-0.0974 0.109908,-0.0891 0.164341,-0.10933 0.681091,-0.25238 0.182225,-0.0505 0.363059,-0.10365 0.401834,-0.11818 0.0415,-0.0155 0.29525,-0.18485 0.616083,-0.41106 l 0.54559,-0.38466 0.03,-0.0841 c 0.0783,-0.21971 0.18759,-0.30361 0.52211,-0.40091 0.3751,-0.10909 0.47286,-0.17276 0.56552,-0.3681 0.0238,-0.0503 0.0695,-0.11689 0.10152,-0.14807 0.21505,-0.20986 0.70616,-0.34851 1.23652,-0.34912 0.27274,-3e-4 0.32867,0.009 0.6087,0.10448 0.4682,0.15913 0.53873,0.11287 0.9237,-0.60636 l 0.13071,-0.24421 0.0684,0.0551 c 0.0975,0.0786 0.22349,0.16435 0.24144,0.16435 0.008,0 0.0326,-0.009 0.0537,-0.0198 0.0303,-0.0156 0.0419,-0.0357 0.055,-0.0935 0.0988,-0.44036 0.799,-0.75365 1.9622,-0.87789 0.5488,-0.0586 1.44183,0.0381 1.7395,0.18839 l 0.0853,0.043 -0.0389,0.0405 c -0.0214,0.0223 -0.0362,0.0406 -0.0327,0.0406 0.003,-3e-5 0.0843,-0.0153 0.17979,-0.0341 0.42317,-0.0828 0.86803,-0.0786 1.04524,0.0107 0.0322,0.0162 0.2231,0.19335 0.45712,0.42448 0.50651,0.50026 0.8015,0.75412 1.14807,0.98806 0.19271,0.13008 0.2873,0.16988 0.40336,0.16976 0.14084,-1.6e-4 0.22285,-0.049 0.46135,-0.27525 0.24019,-0.22777 0.3063,-0.26518 0.46673,-0.26409 0.0934,6.6e-4 0.12285,0.008 0.18701,0.0397 0.15341,0.0785 0.24861,0.18459 0.26864,0.29942 0.0139,0.0802 -0.0167,0.1999 -0.0949,0.37136 -0.18325,0.4016 -0.2403,0.73289 -0.17392,1.00979 0.0682,0.28467 0.24714,0.50415 0.57599,0.70659 l 0.12563,0.0772 0.0155,0.1066 c 0.0227,0.15586 0.0591,0.25212 0.21213,0.56069 0.16157,0.32586 0.19824,0.44574 0.19078,0.62371 -0.002,0.0633 -0.008,0.11877 -0.013,0.12326 -0.0118,0.0118 -0.2245,-0.0272 -0.41434,-0.0751 -0.31093,-0.0782 -0.51592,-0.0838 -0.56974,-0.0153 -0.0196,0.0251 -0.0263,0.0488 -0.0215,0.0777 0.0252,0.1518 0.17126,0.38559 0.41971,0.67186 0.21128,0.24344 0.31403,0.3827 0.3817,0.5173 0.0625,0.12436 0.10838,0.28708 0.10838,0.38434 v 0.0661 l -0.0767,0.0288 c -0.11978,0.0448 -0.25666,0.0398 -0.36267,-0.0131 -0.11711,-0.0585 -0.2682,-0.22186 -0.45408,-0.49094 -0.27456,-0.39746 -0.43734,-0.53559 -0.63195,-0.53627 -0.0954,-3.2e-4 -0.24765,0.0467 -0.24765,0.0765 0,0.0405 0.12314,0.18254 0.28191,0.32509 0.14918,0.13398 0.42415,0.34061 0.68124,0.51197 0.20442,0.13625 0.39435,0.30786 0.39435,0.35631 0,0.0521 -0.24042,0.20128 -0.43304,0.26863 -0.21853,0.0765 -0.36465,0.0981 -1.08376,0.16097 -0.63113,0.0552 -0.96816,0.19212 -1.19279,0.48473 -0.10825,0.14096 -0.20889,0.3735 -0.23319,0.53853 -0.0118,0.0791 -0.0379,0.10932 -0.1535,0.17639 -0.2469,0.14337 -0.46135,0.19313 -1.01085,0.23452 -0.3825,0.0288 -0.71087,0.10436 -0.82201,0.18914 -0.0592,0.0452 -0.0984,0.13082 -0.0988,0.21561 -1.5e-4,0.0363 0.0184,0.14997 0.0413,0.2527 0.0478,0.21524 0.0525,0.33496 0.0157,0.41571 -0.0246,0.0542 -0.11062,0.14249 -0.14434,0.14818 -0.009,8.3e-4 -0.0948,0.003 -0.18998,0.003 l -0.17314,6.6e-4 -0.0312,0.0618 c -0.0373,0.0741 -0.0407,0.18204 -0.0107,0.32606 0.0118,0.0533 0.0242,0.14684 0.0285,0.2078 0.0305,0.42857 -0.26893,0.85517 -0.61395,0.87478 -0.058,0.003 -0.11287,-0.002 -0.14428,-0.0136 z m -14.16311,-0.36913 c -0.0365,-0.0147 -0.08639,-0.0769 -0.09762,-0.12174 -0.0215,-0.0859 0.08498,-0.19097 0.234758,-0.23152 0.208267,-0.0564 0.311867,0.0708 0.197942,0.24294 -0.0645,0.0975 -0.231059,0.15235 -0.335117,0.11027 z m -0.90165,-0.37448 c -0.106833,-0.022 -0.184183,-0.0793 -0.184183,-0.13621 0,-0.0507 0.1053,-0.14585 0.194066,-0.17535 0.101984,-0.0339 0.184692,-0.0223 0.2405,0.0334 0.07692,0.0769 0.05333,0.21038 -0.04667,0.26434 -0.0355,0.0192 -0.14265,0.0263 -0.203675,0.0138 z m 24.8811,-1.2535 c -0.76706,-0.10849 -1.31134,-0.38689 -1.54401,-0.7896 -0.0622,-0.10755 -0.10991,-0.26724 -0.12024,-0.40227 l -0.009,-0.1216 0.25501,0.008 c 0.14026,0.005 0.42644,0.0246 0.63595,0.044 0.77554,0.072 0.99869,0.0734 1.25842,0.008 0.16236,-0.0408 0.24477,-0.0464 0.42382,-0.0288 0.30356,0.0299 0.49616,0.10341 0.64084,0.24469 0.10991,0.10731 0.14904,0.20117 0.14922,0.35796 1.6e-4,0.11086 -0.005,0.13476 -0.0427,0.21539 -0.056,0.11829 -0.11464,0.18354 -0.23694,0.26349 -0.11617,0.076 -0.28046,0.13873 -0.47134,0.18011 -0.17809,0.0387 -0.72423,0.0501 -0.93863,0.0198 z m -28.307775,-2.6687 c -0.02225,-0.0416 -0.0094,-0.11629 0.05575,-0.32113 0.03075,-0.0969 0.05933,-0.19935 0.0635,-0.22775 0.01292,-0.0882 0.0033,-0.0923 -0.224933,-0.10105 -0.299009,-0.0118 -0.383792,-0.0559 -0.328542,-0.17236 0.06758,-0.14232 0.421758,-0.32622 0.733875,-0.38101 0.133758,-0.0235 0.434225,-0.0119 0.524542,0.0202 0.160716,0.0571 0.222783,0.13109 0.2216,0.2641 -8.34e-4,0.16288 -0.146525,0.36471 -0.430817,0.59946 -0.353833,0.29216 -0.569592,0.40427 -0.61495,0.31952 z m 1.576333,-0.71854 c -0.185166,-0.0472 -0.194883,-0.13561 -0.03158,-0.28713 0.209275,-0.1941 0.610892,-0.3686 0.917983,-0.39886 0.201584,-0.0198 0.3204,0.0466 0.303534,0.16968 -0.03025,0.22031 -0.303525,0.40998 -0.715134,0.49622 -0.126858,0.0266 -0.403366,0.0383 -0.474883,0.0201 z m -4.086025,-0.4785 c -0.149533,-0.0362 -0.2042,-0.0828 -0.2042,-0.17371 0,-0.039 0.0145,-0.0694 0.06283,-0.1316 0.08545,-0.11003 0.101517,-0.18776 0.04058,-0.19654 -0.01533,-0.002 -0.138284,0.0523 -0.273225,0.12121 -0.134942,0.0689 -0.253242,0.12513 -0.262875,0.12502 -0.083,-8.4e-4 -0.05167,-0.0746 0.111091,-0.25995 0.112159,-0.12791 0.182667,-0.24289 0.182959,-0.29851 1.5e-4,-0.0299 0.0275,-0.0343 -0.3808,0.0604 -0.438917,0.10164 -0.516009,0.11558 -0.644117,0.11653 -0.110383,6.6e-4 -0.118058,-8.3e-4 -0.122008,-0.0291 -0.01067,-0.0706 0.237433,-0.24393 0.395483,-0.27705 0.113333,-0.0238 0.141817,-0.0413 0.239017,-0.14793 0.09656,-0.10589 0.204925,-0.15814 0.597133,-0.28803 0.328183,-0.10873 0.429242,-0.128 0.531392,-0.10163 0.08317,0.0215 0.112158,0.0545 0.14195,0.16154 0.028,0.10081 0.06692,0.14129 0.191166,0.19918 0.127134,0.0592 0.166967,0.092 0.206525,0.16999 0.05783,0.11393 0.1066,0.1369 0.2202,0.10376 0.09017,-0.0263 0.227734,-0.0995 0.42495,-0.22636 0.212201,-0.13646 0.353492,-0.21066 0.390967,-0.20535 0.04492,0.006 0.04658,0.0517 0.005,0.13446 -0.04525,0.0895 -0.04558,0.14507 -8.33e-4,0.18959 0.04175,0.0417 0.05367,0.0396 0.262508,-0.0456 0.08333,-0.0341 0.184234,-0.0652 0.224367,-0.0694 0.06917,-0.007 0.07342,-0.006 0.08167,0.0273 0.01667,0.0666 -0.126417,0.28309 -0.306159,0.46333 -0.252875,0.25359 -0.824933,0.48717 -1.399808,0.57158 -0.230184,0.0338 -0.589492,0.0371 -0.71515,0.008 z m 2.126642,-0.20184 c -0.0195,-0.0195 0.0125,-0.10578 0.08556,-0.23046 0.143809,-0.24539 0.454234,-0.58244 0.594375,-0.64534 0.197725,-0.0888 0.383917,-0.12002 0.773,-0.12971 0.48265,-0.0121 0.662725,0.031 0.662725,0.15825 0,0.0892 -0.07467,0.19454 -0.22755,0.32092 -0.269508,0.22286 -0.609033,0.3797 -0.7137,0.32968 -0.02542,-0.0122 -0.04067,-0.039 -0.06042,-0.10625 -0.0145,-0.0495 -0.03875,-0.10731 -0.05375,-0.12835 -0.114167,-0.1604 -0.36335,-0.0774 -0.778934,0.25935 -0.152066,0.12324 -0.240058,0.18758 -0.256533,0.18758 -0.005,0 -0.01617,-0.007 -0.02483,-0.0157 z m 4.789109,-0.1092 c -0.512375,-0.0208 -0.805976,-0.0666 -0.983492,-0.15337 -0.111217,-0.0543 -0.135442,-0.0753 -0.4369,-0.37796 -0.3162,-0.31747 -0.480709,-0.50506 -0.535425,-0.61055 -0.05225,-0.10069 -0.01675,-0.23099 0.115933,-0.42674 0.02967,-0.0438 0.05792,-0.0797 0.06275,-0.0797 0.005,0 0.005,0.003 0,0.008 -0.0255,0.0254 0.0345,0.0643 0.201208,0.13 0.467734,0.18447 0.594442,0.27925 0.736859,0.5512 0.106833,0.20391 0.183308,0.27774 0.338717,0.32684 0.2903,0.0917 0.49355,0.10637 1.414641,0.10199 0.73515,-0.003 0.759559,-0.002 0.930642,0.0281 0.260508,0.0472 0.291242,0.0579 0.304983,0.10708 0.01067,0.0367 0.0058,0.0463 -0.04067,0.0873 -0.249842,0.22084 -1.118067,0.34718 -2.109192,0.30694 z m -2.317667,-0.11606 c -0.11145,-0.0415 -0.137267,-0.11369 -0.07225,-0.20186 0.112508,-0.15259 0.374066,-0.23049 0.470275,-0.14009 0.08876,0.0834 0.03892,0.26006 -0.09289,0.32878 -0.06025,0.0314 -0.235908,0.039 -0.305208,0.0132 z m -3.230076,-0.98962 c -0.169766,-0.0511 -0.214758,-0.0971 -0.162733,-0.16681 0.03142,-0.0421 0.0988,-0.078 0.48825,-0.26027 0.33225,-0.15548 0.502792,-0.22368 0.588975,-0.23548 0.05458,-0.008 0.062,-0.006 0.062,0.0176 -1.66e-4,0.0519 -0.06142,0.12692 -0.281741,0.34474 -0.271217,0.26812 -0.34405,0.3142 -0.507425,0.32091 -0.07125,0.003 -0.130501,-0.003 -0.187351,-0.0207 z m 2.657451,-0.11168 c -0.133242,-0.0526 -0.318167,-0.15355 -0.464725,-0.25371 -0.101875,-0.0696 -0.167075,-0.12958 -0.232367,-0.21368 -0.01467,-0.0189 0.02733,-0.0588 0.147942,-0.14123 0.117708,-0.0803 0.244575,-0.13757 0.358566,-0.16171 0.246142,-0.0522 0.604275,0.006 0.658167,0.10648 0.02208,0.0413 0.0058,0.25433 -0.02933,0.39314 -0.07408,0.2898 -0.197159,0.3658 -0.438242,0.27066 z m 50.241888,48.03182 c 0.005,-0.0123 0.002,-0.0178 -0.006,-0.013 -0.007,0.005 -0.0138,0.0143 -0.0138,0.0215 0,0.02 0.009,0.0156 0.0192,-0.008 z m -0.96888,-1.86442 c 0.23736,-0.26399 0.61029,-1.02191 0.72839,-1.48027 0.0399,-0.15505 0.0453,-0.36205 0.0107,-0.3971 -0.0229,-0.0229 -0.026,-0.0227 -0.0624,0.003 -0.15789,0.11618 -0.54262,0.93558 -0.71605,1.52497 -0.0812,0.27602 -0.0961,0.4196 -0.0435,0.4196 0.0107,0 0.048,-0.032 0.0832,-0.0712 z m 3.92791,-8.33041 0.0949,-0.12467 0.0492,-0.35324 c 0.0763,-0.54717 0.1745,-1.3623 0.1745,-1.44765 0,-0.03 -0.007,-0.0262 -0.0658,0.0375 -0.0682,0.0735 -0.26607,0.2379 -0.27524,0.22874 -0.003,-0.003 -0.0957,-0.6499 -0.20638,-1.43783 -0.99571,-7.09131 -1.14447,-8.0094 -1.40138,-8.64925 -0.0808,-0.2012 -0.19535,-0.41262 -0.21661,-0.39978 -0.0202,0.0122 -0.21984,0.15714 -0.23567,0.17112 -0.006,0.006 0.0385,0.17146 0.0999,0.3685 0.35727,1.1486 0.5283,1.81082 0.72036,2.7894 0.34174,1.74123 0.67092,4.54313 0.96509,8.21461 0.0357,0.44571 0.0676,0.81925 0.0708,0.8301 0.008,0.0279 0.10944,-0.0738 0.22647,-0.22751 z M 88.235195,134.79617 c 0.101517,-0.0974 0.167967,-0.27561 0.34315,-0.9207 0.129108,-0.47546 0.209767,-0.72828 0.304942,-0.95574 0.243158,-0.58122 0.579816,-0.89113 0.96805,-0.89113 0.146766,0 0.22735,0.0273 0.292233,0.0992 0.06817,0.0755 0.1001,0.15635 0.11795,0.29943 0.01633,0.13086 0.01183,0.23504 -0.02933,0.6595 -0.04092,0.42255 -0.035,0.51767 0.03725,0.60355 0.05633,0.067 0.122325,0.0793 0.235991,0.0441 0.289759,-0.0899 0.40135,-0.31636 0.502675,-1.01996 0.04325,-0.30003 0.08108,-0.47167 0.125417,-0.56796 l 0.0255,-0.0554 8.33e-4,0.0844 c 8.34e-4,0.0648 0.01067,0.10401 0.04342,0.16879 0.07017,0.1405 0.2458,0.28201 0.375708,0.30278 0.03642,0.006 0.05708,-8.3e-4 0.09762,-0.0318 0.04408,-0.0336 0.0515,-0.0472 0.05175,-0.0947 8.33e-4,-0.22824 -0.195867,-0.52472 -0.521558,-0.78388 -0.108259,-0.0861 -0.146525,-0.0992 -0.419759,-0.14362 -0.4157,-0.0676 -0.845808,-0.10885 -1.149666,-0.11027 -0.224959,-8.3e-4 -0.252392,8.3e-4 -0.380934,0.0375 -0.283716,0.0792 -0.458841,0.17344 -0.6231,0.33535 -0.184183,0.18155 -0.306566,0.40893 -0.383166,0.71191 -0.04975,0.19686 -0.244909,1.16326 -0.303784,1.50452 -0.05708,0.33059 -0.06158,0.52534 -0.01442,0.62109 0.02025,0.041 0.05767,0.0855 0.09692,0.11464 0.07967,0.0593 0.135492,0.0563 0.206059,-0.0118 z m 3.300158,-0.62285 c 1.225959,-0.63133 1.814617,-1.03399 1.797942,-1.22987 -0.0083,-0.10329 -0.188983,-0.15984 -0.509691,-0.15984 -0.320317,0 -0.389051,0.0297 -0.821076,0.35468 -0.482866,0.36324 -0.89515,0.71664 -1.258133,1.07844 -0.270817,0.26993 -0.441867,0.4841 -0.441867,0.55327 0,0.0149 0.750884,-0.34848 1.232825,-0.59668 z m 46.577527,-0.10873 c 0.0381,-0.0166 0.18732,-0.0761 0.3316,-0.13251 0.16586,-0.0647 0.2767,-0.11618 0.30138,-0.13983 0.0214,-0.0206 0.0697,-0.0969 0.10707,-0.16978 0.12065,-0.23454 0.20809,-0.27956 0.38191,-0.19658 0.10826,0.0517 0.21817,0.13418 0.38367,0.28803 0.14395,0.13383 0.24674,0.19441 0.39405,0.23223 0.10979,0.0281 0.16678,0.0276 0.22557,-0.002 0.14274,-0.0728 0.13723,-0.22776 -0.0221,-0.61988 -0.14496,-0.35683 -0.37073,-0.70744 -0.67791,-1.05281 -0.0677,-0.0763 -0.31738,-0.33176 -0.55468,-0.56795 -0.2378,-0.23669 -0.45364,-0.46363 -0.48086,-0.50563 -0.0579,-0.0892 -0.0854,-0.19909 -0.0986,-0.39324 -0.005,-0.0752 -0.0204,-0.17293 -0.0342,-0.2169 -0.0252,-0.0808 -0.0755,-0.16561 -0.0982,-0.16561 -0.007,0 -0.0195,0.0265 -0.0283,0.0588 -0.0187,0.0687 -0.0123,0.1966 0.0365,0.73614 0.0532,0.58657 0.0481,0.63093 -0.0637,0.55692 -0.0697,-0.0461 -0.14426,-0.14738 -0.34502,-0.46844 -0.34513,-0.55199 -0.48915,-0.74412 -0.5983,-0.79813 l -0.0579,-0.0286 -0.0393,0.028 c -0.039,0.0277 -0.0393,0.0294 -0.0393,0.17433 0,0.18531 0.0263,0.35237 0.11263,0.71758 0.12326,0.52117 0.12509,0.53248 0.13701,0.84502 0.009,0.25978 0.0155,0.30731 0.0528,0.44441 0.0563,0.20732 0.117,0.36554 0.28567,0.74481 0.13656,0.30712 0.2203,0.51594 0.2578,0.64291 0.0155,0.0527 0.0197,0.0568 0.0395,0.0391 0.0122,-0.0107 0.0532,-0.0334 0.0912,-0.05 z m 2.69318,-1.15121 c -0.19048,-0.43767 -0.40665,-0.90769 -0.63944,-1.39037 -0.2303,-0.47754 -0.54713,-1.09739 -0.56728,-1.10983 -0.0234,-0.0145 -0.0363,0.0221 -0.0292,0.0831 0.0107,0.0909 0.13312,0.44293 0.23992,0.68949 0.18675,0.43112 0.5752,1.15721 0.91787,1.71564 0.0911,0.14857 0.17575,0.28687 0.18798,0.30733 0.0512,0.0856 0.0232,0.0107 -0.10991,-0.29529 z M 75.720358,131.4815 c 0.07729,-0.0591 0.138982,-0.17667 0.170607,-0.32558 0.03262,-0.15373 0.0195,-0.54971 -0.02718,-0.81867 -0.05542,-0.31903 -0.162818,-0.71438 -0.189645,-0.69781 -0.02883,0.0178 -0.05307,0.31794 -0.06724,0.83077 -0.01182,0.42169 -10e-4,0.98343 0.01962,1.03548 0.01323,0.0333 0.02128,0.0312 0.09384,-0.0242 z m 11.611712,-0.31098 c 0.144433,-0.0346 0.211691,-0.0614 0.504792,-0.20148 0.271991,-0.12992 0.428275,-0.18714 0.511075,-0.18714 0.0515,0 0.06025,0.006 0.109791,0.0727 0.142809,0.19322 0.33755,0.2867 0.598159,0.28711 0.184141,3.2e-4 0.4333,-0.0845 0.579908,-0.19735 0.122292,-0.0941 0.2757,-0.32446 0.254717,-0.3824 -0.06608,-0.18212 -0.743234,-0.81989 -0.9295,-0.87536 -0.04542,-0.0135 -0.0625,-0.009 -0.168309,0.0353 -0.25025,0.10708 -0.699066,0.35755 -1.019825,0.5691 -0.480433,0.31686 -0.725542,0.57164 -0.725542,0.75419 0,0.0519 0.0075,0.0708 0.03808,0.0999 0.06167,0.0582 0.09584,0.0616 0.246675,0.0255 z m 45.57936,-7.96135 c 0,-0.0203 -0.0187,-0.0662 -0.0417,-0.10188 -0.048,-0.0748 -0.28621,-0.31008 -0.40846,-0.40336 -0.19227,-0.14675 -0.35749,-0.22994 -0.38102,-0.19185 -0.0429,0.0695 0.18615,0.3714 0.41473,0.54658 0.11968,0.0917 0.30791,0.18744 0.36858,0.18744 0.0427,0 0.0478,-0.003 0.0478,-0.0368 z"
       id="path1511"
       inkscape:connector-curvature="0" />
  </g>
</svg>
