<?xml version="1.0" encoding="UTF-8" standalone="no"?>
<!-- Created with Inkscape (http://www.inkscape.org/) -->

<svg
   xmlns:dc="http://purl.org/dc/elements/1.1/"
   xmlns:cc="http://creativecommons.org/ns#"
   xmlns:rdf="http://www.w3.org/1999/02/22-rdf-syntax-ns#"
   xmlns:svg="http://www.w3.org/2000/svg"
   xmlns="http://www.w3.org/2000/svg"
   xmlns:sodipodi="http://sodipodi.sourceforge.net/DTD/sodipodi-0.dtd"
   xmlns:inkscape="http://www.inkscape.org/namespaces/inkscape"
   width="128mm"
   height="128mm"
   viewBox="0 0 128 128"
   version="1.1"
   id="svg8"
   inkscape:version="0.92.3 (2405546, 2018-03-11)"
   sodipodi:docname="avatar-icon.svg">
  <defs
     id="defs2" />
  <sodipodi:namedview
     id="base"
     pagecolor="#ffffff"
     bordercolor="#666666"
     borderopacity="1.0"
     inkscape:pageopacity="0.0"
     inkscape:pageshadow="2"
     inkscape:zoom="0.98994949"
     inkscape:cx="88.314861"
     inkscape:cy="253.76815"
     inkscape:document-units="mm"
     inkscape:current-layer="layer1"
     showgrid="false"
     fit-margin-top="0"
     fit-margin-left="0"
     fit-margin-right="0"
     fit-margin-bottom="0"
     inkscape:window-width="1869"
     inkscape:window-height="1145"
     inkscape:window-x="51"
     inkscape:window-y="27"
     inkscape:window-maximized="1" />
  <metadata
     id="metadata5">
    <rdf:RDF>
      <cc:Work
         rdf:about="">
        <dc:format>image/svg+xml</dc:format>
        <dc:type
           rdf:resource="http://purl.org/dc/dcmitype/StillImage" />
        <dc:title></dc:title>
      </cc:Work>
    </rdf:RDF>
  </metadata>
  <g
     inkscape:label="Layer 1"
     inkscape:groupmode="layer"
     id="layer1"
     transform="translate(-41,-84.5)">
    <rect
       style="opacity:1;fill:#383838;fill-opacity:1;fill-rule:nonzero;stroke:none;stroke-width:1.01501524;stroke-linecap:square;stroke-linejoin:round;stroke-miterlimit:4;stroke-dasharray:none;stroke-opacity:1;paint-order:stroke fill markers"
       id="rect1513"
       width="128"
       height="128"
       x="41"
       y="84.5"
       rx="0.25275034"
       ry="0.36687773" />
    <path
       style="fill:#ffffff;stroke-width:0.01662278"
       d="m 103.86913,196.48992 c -4.198936,-0.10453 -8.216846,-0.71678 -12.167636,-1.85388 -6.75281,-1.94357 -13.017174,-5.37041 -18.330609,-10.02754 -5.414098,-4.74533 -9.687231,-10.62552 -12.512081,-17.21765 -2.932504,-6.8434 -4.216775,-14.2665 -3.773241,-21.80949 0.205622,-3.49688 0.806389,-7.0039 1.778336,-10.38113 2.447714,-8.50506 7.24241,-16.20665 13.82151,-22.2011 4.520662,-4.11894 9.785485,-7.33815 15.497695,-9.47617 4.53011,-1.69556 9.35423,-2.69817 14.223246,-2.95603 1.62576,-0.0861 3.5028,-0.0893 5.06985,-0.009 7.23787,0.37263 14.17859,2.33002 20.49387,5.7796 7.26411,3.96786 13.39226,9.74763 17.77093,16.76071 5.61803,8.99801 8.07034,19.54536 7.02265,30.20415 -0.97328,9.90191 -5.05341,19.2923 -11.65577,26.82571 -5.47114,6.24267 -12.43648,10.9533 -20.24229,13.68978 -4.24142,1.48691 -8.74692,2.37321 -13.28134,2.61263 -1.13423,0.0598 -2.68896,0.0845 -3.71512,0.059 z m 2.75933,-1.16428 c 0.24227,-0.008 0.65368,-0.0279 0.91424,-0.042 9.06184,-0.48861 17.73824,-3.59017 25.06927,-8.96153 2.07918,-1.52339 4.18301,-3.35179 5.89006,-5.11893 0.6054,-0.62671 0.68075,-0.70623 1.00716,-1.06272 2.96944,-3.24317 5.46156,-6.86335 7.40938,-10.76323 0.2733,-0.54718 0.63886,-1.30795 0.66296,-1.37971 0.004,-0.0142 -0.17054,0.33039 -0.38921,0.76467 -0.54153,1.07541 -0.9524,1.83839 -1.48121,2.75044 -2.34937,4.05202 -5.13625,7.50175 -8.30662,10.28234 -1.82958,1.60462 -3.84242,3.02108 -5.91024,4.1591 l -0.22581,0.12423 -0.20178,-0.0746 c -0.12976,-0.0479 -0.19782,-0.0811 -0.19069,-0.093 0.006,-0.01 0.23533,-0.33639 0.50941,-0.72495 2.00788,-2.84662 3.32544,-4.75265 3.43031,-4.96243 0.0272,-0.0546 0.90327,-1.96567 1.94656,-4.24676 l 1.89692,-4.14747 0.13274,-0.52363 c 0.70003,-2.76037 1.27492,-5.67008 1.50419,-7.61337 0.0935,-0.79197 0.11544,-1.13204 0.11629,-1.79529 8e-4,-0.67657 -0.0142,-0.8546 -0.0981,-1.18974 -0.046,-0.18241 -0.14954,-0.40961 -0.21487,-0.47099 l -0.0423,-0.0397 -0.0794,0.0644 c -0.0437,0.0355 -0.22481,0.18326 -0.40245,0.3286 l -0.32296,0.26424 -0.2249,-0.0312 -0.22488,-0.0312 -0.0128,-0.0581 c -0.007,-0.032 -0.039,-0.23396 -0.0713,-0.44881 -0.0631,-0.42021 -0.11529,-0.65994 -0.18196,-0.83718 -0.17417,-0.46271 -0.43901,-0.71198 -0.80913,-0.76149 -0.30241,-0.0404 -0.63391,0.0642 -0.84012,0.26544 -0.1231,0.12012 -0.2088,0.23915 -0.39614,0.55048 -0.2942,0.48896 -0.45599,0.63663 -0.8098,0.73917 -0.28101,0.0814 -0.60722,0.0882 -1.2271,0.0252 -0.28393,-0.0288 -0.68168,-0.0216 -0.85641,0.0156 -0.17645,0.0376 -0.38025,0.11587 -0.47995,0.18447 -0.11431,0.0787 -0.31377,0.30275 -0.45248,0.50842 -0.0708,0.10495 -0.13572,0.19093 -0.14413,0.19093 -0.0281,0 -0.18332,-0.0841 -0.26254,-0.14229 -0.14234,-0.10452 -0.36113,-0.35288 -0.51377,-0.58327 -0.33644,-0.50781 -0.66941,-1.31324 -0.80645,-1.95075 -0.13217,-0.61484 -0.19011,-0.78278 -0.3564,-1.03302 -0.20995,-0.31594 -0.507,-0.61444 -1.60496,-1.61276 -0.256,-0.23276 -0.49749,-0.45962 -0.53664,-0.50413 -0.13728,-0.15602 -0.22545,-0.39362 -0.26838,-0.72327 -0.0396,-0.30358 -0.0528,-0.60519 -0.0618,-1.41296 l -0.01,-0.83946 0.29366,-3.6654 0.29368,-3.66539 0.18357,-0.66492 c 0.32617,-1.18141 0.51346,-1.77439 0.66198,-2.09589 0.13983,-0.30268 0.27392,-0.46163 0.63196,-0.74919 0.31186,-0.25048 0.4804,-0.44357 0.62896,-0.72058 0.20141,-0.37554 0.2928,-0.76441 0.4102,-1.74543 0.0729,-0.60968 0.16858,-1.01064 0.31418,-1.31748 0.0693,-0.14599 0.44573,-0.77653 0.61278,-1.02637 0.2961,-0.44284 0.50512,-0.62566 0.83462,-0.72996 0.19926,-0.0631 0.38063,-0.0943 0.81894,-0.14126 l 0.36574,-0.0391 0.13912,-0.12041 c 1.06011,-0.91773 2.25018,-1.56286 3.32232,-1.801 0.35247,-0.0783 0.56257,-0.10056 0.95579,-0.10098 0.3843,-4e-4 0.50104,0.0113 0.81077,0.0844 0.22253,0.0523 0.31009,0.10736 0.52914,0.33318 0.47353,0.48807 0.69103,0.98586 0.61314,1.40323 -0.0303,0.16248 -0.10735,0.29218 -0.26673,0.44928 l -0.14576,0.14362 0.10878,0.13899 c 0.13458,0.17186 0.95842,0.99614 1.28447,1.28518 1.16785,1.03528 2.05058,1.62022 2.5686,1.70208 0.0546,0.008 0.10594,0.0113 0.11388,0.007 0.009,-0.004 0.0506,-0.0845 0.0946,-0.17695 0.0929,-0.19498 0.15769,-0.41495 0.23133,-0.78514 0.0604,-0.30358 0.0858,-0.41019 0.1424,-0.5989 l 0.0407,-0.13544 0.10523,-0.0183 c 0.40951,-0.0713 0.79191,0.0309 1.6847,0.45066 l 0.32365,0.15213 -0.0113,0.10084 c -0.006,0.0555 -0.0414,0.2542 -0.0784,0.44163 -0.0516,0.26133 -0.0692,0.39335 -0.0752,0.56633 -0.007,0.22197 0.0163,0.4348 0.0455,0.40374 0.007,-0.008 0.0563,-0.11516 0.10863,-0.23866 0.14595,-0.34385 0.26231,-0.58332 0.33598,-0.69144 0.0628,-0.0922 0.21243,-0.24865 0.33122,-0.34635 l 0.0526,-0.0433 0.14605,0.15821 0.14603,0.1582 h 0.18651 0.18651 l 0.0128,-0.11218 c 0.0142,-0.1302 -0.003,-0.87386 -0.0267,-1.21096 -0.0998,-1.38514 -0.38711,-2.31709 -0.84223,-2.73305 -0.0642,-0.0587 -0.10083,-0.0811 -0.11941,-0.0732 -0.58658,0.25265 -1.05579,0.15874 -1.53699,-0.30763 -0.4403,-0.42672 -0.84086,-1.14335 -1.34338,-2.40338 -0.0729,-0.18285 -0.14139,-0.34071 -0.15214,-0.35078 -0.017,-0.016 -0.35549,-0.0739 -0.42925,-0.0733 -0.0386,2.5e-4 -0.0641,0.16168 -0.0641,0.40673 0,0.25805 0.0518,0.51222 0.18118,0.89071 0.0546,0.15965 0.14399,0.42117 0.19862,0.58116 0.15025,0.44006 0.17717,0.58125 0.17598,0.92259 -8e-4,0.23766 -0.007,0.30355 -0.0374,0.41446 -0.0348,0.12565 -0.13161,0.35851 -0.14918,0.35851 -0.004,0 -0.0648,-0.0272 -0.13387,-0.0604 -0.17044,-0.082 -0.27909,-0.19309 -0.36472,-0.37299 -0.0367,-0.077 -0.14666,-0.35998 -0.24439,-0.62869 -0.0977,-0.26872 -0.21742,-0.58663 -0.26597,-0.70649 -0.71636,-1.7685 -1.9289,-3.35807 -3.59833,-4.71726 -0.2504,-0.20385 -0.81867,-0.62883 -0.84091,-0.62884 -0.01,-2e-5 -0.0443,0.0752 -0.077,0.16719 l -0.0596,0.16723 0.0916,0.12778 c 0.28344,0.3953 0.61053,0.71123 1.43368,1.3847 0.659,0.53919 0.95337,0.81676 1.21803,1.14853 0.24214,0.30353 0.25099,0.32135 0.32527,0.6547 0.15136,0.67933 0.30078,1.69027 0.28218,1.90922 l -0.006,0.0625 -0.2899,-0.35496 c -1.48853,-1.82241 -2.86761,-3.2885 -3.63447,-3.86379 -0.17757,-0.13318 -0.43204,-0.28955 -0.47115,-0.28946 -0.0143,0 -0.12324,0.0835 -0.24214,0.18566 -0.27532,0.23649 -0.44755,0.36448 -0.5688,0.42273 -0.14332,0.0688 -0.34684,0.0745 -0.60297,0.0166 -0.10508,-0.0237 -0.19993,-0.0431 -0.21081,-0.0431 -0.0113,0 -0.033,0.0572 -0.0496,0.12877 -0.0345,0.14846 -0.0397,0.45906 -0.0156,0.94361 l 0.0149,0.29946 -0.0692,0.0479 c -0.1048,0.0726 -0.27764,0.26383 -0.37898,0.4193 -0.1851,0.28398 -0.2917,0.55878 -0.49567,1.27765 -0.20552,0.72445 -0.31136,0.99316 -0.50519,1.28271 -0.26493,0.39574 -0.63937,0.64089 -1.15191,0.75417 l -0.0945,0.0208 -0.0676,0.16309 c -0.0373,0.0898 -0.0753,0.18313 -0.0847,0.20759 -0.0153,0.0401 -0.0197,0.0421 -0.0455,0.02 -0.12764,-0.10906 -0.39329,-0.22612 -0.86809,-0.38255 -0.57577,-0.18969 -0.81771,-0.3025 -1.03288,-0.48158 -0.0811,-0.0675 -0.11302,-0.10892 -0.15642,-0.20286 -0.24092,-0.52161 -0.73164,-2.72073 -0.86279,-3.86658 -0.0318,-0.27762 -0.0325,-0.58358 -0.001,-0.67018 0.0872,-0.24436 0.29385,-0.26196 1.77489,-0.15114 0.72443,0.0542 1.12867,0.0606 1.26004,0.0199 0.0542,-0.0167 0.11175,-0.0492 0.14025,-0.079 0.16757,-0.17491 -0.0838,-0.60159 -1.05295,-1.78754 -0.21043,-0.25749 -1.11863,-1.35044 -1.21182,-1.45832 -0.0224,-0.0258 -0.0208,-0.032 0.0149,-0.0627 0.12409,-0.10623 0.39794,-0.26461 0.86248,-0.49861 0.68234,-0.34373 0.89507,-0.48695 1.11392,-0.74993 l 0.0788,-0.0947 -0.023,-0.0884 c -0.10537,-0.40607 0.11898,-1.01116 0.6294,-1.69749 0.12451,-0.16748 0.28139,-0.3555 0.51612,-0.61866 l 0.0735,-0.0824 0.20602,0.0435 c 0.11331,0.024 0.20789,0.0417 0.21018,0.0394 0.003,-0.003 -0.11246,-0.16425 -0.25487,-0.36005 -0.36079,-0.49577 -0.58267,-0.83019 -0.66086,-0.99597 -0.0545,-0.11544 -0.0679,-0.16413 -0.0739,-0.26597 -0.007,-0.13246 0.0181,-0.31512 0.0469,-0.33294 0.0224,-0.0142 0.41279,-0.0739 0.42067,-0.0647 0.003,0.004 0.0866,0.11913 0.18509,0.25633 0.67262,0.93645 1.19182,1.33098 1.84811,1.40427 0.43926,0.0491 0.98976,-0.11941 1.53804,-0.47078 l 0.0947,-0.0607 -0.17309,-0.35328 c -0.0952,-0.1943 -0.22146,-0.47297 -0.28058,-0.61926 l -0.1075,-0.26596 0.0445,-0.0381 c 0.12905,-0.11062 0.25938,-0.19807 0.39245,-0.26318 0.0815,-0.04 0.15784,-0.0726 0.16939,-0.0726 0.06,0 0.0142,-0.0529 -0.25892,-0.29858 -0.35498,-0.31944 -0.60854,-0.58366 -0.58057,-0.60499 0.004,-0.003 0.12239,-0.0259 0.26405,-0.0519 0.48263,-0.0881 0.66144,-0.14565 0.79666,-0.25673 l 0.057,-0.0468 -0.037,-0.0479 c -0.0676,-0.0875 -0.35798,-0.37432 -0.45467,-0.44928 -0.0523,-0.0406 -0.14589,-0.0979 -0.20778,-0.12707 -0.0993,-0.0471 -0.12919,-0.0533 -0.25416,-0.0533 -0.20127,0 -0.31111,0.0563 -0.53959,0.27633 l -0.17078,0.16448 -0.0976,-0.0726 c -0.32649,-0.24264 -0.57127,-0.63628 -0.82857,-1.33239 -0.0608,-0.16458 -0.15197,-0.41143 -0.20254,-0.54858 -0.11502,-0.31174 -0.27272,-0.64336 -0.38796,-0.81552 -0.28471,-0.4253 -0.68981,-0.61639 -1.18023,-0.55677 -0.0868,0.01 -0.16335,0.0247 -0.16997,0.0312 -0.007,0.007 0.0489,0.0979 0.12366,0.20279 0.24287,0.34129 0.47474,0.69121 0.52819,0.7971 0.0583,0.11531 0.11657,0.32285 0.11657,0.41465 0,0.0515 -0.0179,0.0791 -0.12678,0.19773 l -0.12679,0.13785 0.0113,0.0942 c 0.0179,0.15212 0.13714,0.4828 0.2664,0.73848 0.14249,0.28187 0.28782,0.52477 0.64991,1.08619 0.48283,0.74863 0.66006,1.06791 0.76878,1.38499 0.0552,0.16067 0.0607,0.19357 0.0613,0.35969 3.9e-4,0.16738 -0.003,0.19089 -0.0461,0.27784 -0.083,0.16913 -0.26776,0.29376 -0.53771,0.36281 l -0.12877,0.0329 -0.0729,-0.0708 c -0.10466,-0.10182 -0.26553,-0.32101 -0.52143,-0.71081 -0.1231,-0.18742 -0.28023,-0.40854 -0.34931,-0.49136 -0.20528,-0.24612 -0.44341,-0.41837 -0.70878,-0.51271 -0.18137,-0.0645 -0.18076,-0.0647 -0.19311,0.0773 -0.006,0.0662 -0.0146,0.16273 -0.0197,0.21431 l -0.01,0.0937 -0.17519,0.0935 -0.17518,0.0935 -0.15169,-0.0803 c -0.58324,-0.30846 -1.11716,-0.74577 -1.51602,-1.24169 -0.2895,-0.35996 -0.58451,-0.89127 -0.74759,-1.34646 -0.15478,-0.43197 -0.26623,-0.97864 -0.30815,-1.51137 -0.0244,-0.30946 -0.0113,-1.09472 0.0242,-1.40597 0.0781,-0.69396 0.22247,-1.37123 0.42582,-1.99931 0.077,-0.2379 0.16958,-0.48627 0.18812,-0.50481 0.0113,-0.0113 0.51755,0.1 0.96502,0.21189 2.30298,0.57576 3.96763,1.35194 4.60803,2.14859 0.10395,0.1292 0.25981,0.41307 0.28335,0.51582 l 0.0113,0.0481 -0.37376,-0.008 -0.37374,-0.008 0.45031,0.39254 c 0.69608,0.60676 0.7658,0.66557 0.77108,0.6505 0.003,-0.007 -0.0128,-0.0859 -0.0356,-0.17381 -0.0223,-0.0878 -0.0357,-0.15969 -0.0299,-0.15963 0.006,0 0.0963,0.0149 0.20087,0.0329 0.10466,0.018 0.1925,0.0304 0.19536,0.0275 0.003,-0.003 -0.0631,-0.0831 -0.14673,-0.17832 -0.19822,-0.22576 -0.33362,-0.40786 -0.38668,-0.52005 -0.0397,-0.084 -0.14301,-0.38256 -0.14301,-0.41342 0,-0.007 0.11402,0.0774 0.25348,0.18872 l 0.2535,0.20241 -0.57457,-0.58004 c -0.31603,-0.31902 -0.6087,-0.62117 -0.65041,-0.67146 -0.0824,-0.0993 -0.20359,-0.28259 -0.18694,-0.28259 0.006,0 0.0526,0.0345 0.10438,0.0766 0.17747,0.14462 -0.0277,-0.0382 -0.45447,-0.40471 -3.59759,-3.09043 -7.66589,-5.62692 -12.01803,-7.49292 -5.04364,-2.16247 -10.45703,-3.41508 -15.9825,-3.6982 -1.16712,-0.0598 -2.99695,-0.0762 -4.03095,-0.0362 -1.84817,0.0716 -3.481126,0.21765 -5.152956,0.46066 -8.40785,1.22213 -16.28437,4.70452 -22.899348,10.12433 -0.783344,0.64181 -1.669505,1.41659 -1.646516,1.43956 0.02468,0.0247 0.327769,0.10977 0.452923,0.12707 0.06509,0.008 0.121821,0.02 0.126217,0.0242 0.01943,0.0194 0.02368,0.34522 0.0085,0.63434 -0.0085,0.1737 -0.01447,0.31812 -0.01135,0.32091 0.0028,0.003 0.08963,-0.0563 0.192858,-0.13132 0.752129,-0.54658 1.128967,-0.69636 1.752453,-0.69647 0.194163,0 0.6841,0.0384 0.700721,0.0552 0.0014,0.001 -0.03375,0.0874 -0.07871,0.19061 -0.04496,0.10325 -0.08169,0.19 -0.08169,0.19292 0,0.003 0.06197,-0.0268 0.137705,-0.0662 0.226256,-0.11743 0.359011,-0.14749 0.651793,-0.14745 0.291705,0 0.3723,0.0145 0.933302,0.16661 0.395472,0.10722 0.684792,0.16307 0.797682,0.1538 l 0.0642,-0.006 0.0716,-0.18919 c 0.0394,-0.1041 0.12395,-0.37334 0.18781,-0.59843 0.064,-0.22508 0.14279,-0.49012 0.17531,-0.58899 0.0325,-0.0988 0.0564,-0.18204 0.0532,-0.18486 -0.003,-0.003 -0.148,0.0772 -0.3217,0.17778 -0.42285,0.24489 -0.70199,0.38725 -0.843652,0.43028 -0.100123,0.0304 -0.142271,0.034 -0.29108,0.0257 -0.09573,-0.006 -0.175996,-0.0128 -0.178407,-0.0149 -0.0028,-0.003 -0.01801,-0.10055 -0.0346,-0.21727 l -0.03035,-0.2123 0.123948,-0.12537 c 0.299519,-0.30303 0.574801,-0.42667 2.625581,-1.17923 0.30627,-0.11232 0.56956,-0.20943 0.58511,-0.21564 0.0217,-0.009 0.0346,0.004 0.0554,0.0525 0.0479,0.11232 0.10579,0.36647 0.12622,0.55383 l 0.0197,0.18193 0.10126,0.0355 c 0.16869,0.0591 0.35804,0.0591 0.81162,3.6e-4 0.21699,-0.0281 0.40587,-0.0512 0.41972,-0.0512 0.0186,0 0.0251,0.0186 0.0251,0.0706 -1.8e-4,0.14193 -0.0831,0.6256 -0.14332,0.83531 -0.006,0.0183 0.0874,-0.11005 0.20592,-0.28525 0.5132,-0.75856 0.62433,-0.86262 0.9653,-0.90392 0.0854,-0.01 0.15717,-0.0163 0.15968,-0.0128 0.003,0.003 0.0512,0.0896 0.10807,0.19244 l 0.10353,0.18691 -0.073,0.0835 c -0.11019,0.12594 -0.22292,0.32377 -0.28745,0.50434 -0.0318,0.0889 -0.0577,0.17455 -0.0574,0.19018 1.9e-4,0.0156 0.045,0.0658 0.0994,0.11147 0.11473,0.0962 0.25988,0.25388 0.38143,0.41448 0.0974,0.12878 0.0997,0.11942 -0.0543,0.23517 -0.21969,0.16516 -0.40177,0.25137 -0.8923,0.42255 -0.37135,0.12963 -0.54774,0.20386 -0.70426,0.29655 -0.12381,0.0733 -0.34296,0.25565 -0.34296,0.28534 0,0.0184 0.43485,0.12196 0.72376,0.1723 0.36967,0.0644 0.58168,0.0821 0.86811,0.0725 0.39272,-0.0128 0.61166,-0.0817 0.79401,-0.24834 0.17671,-0.16149 0.23929,-0.33229 0.25273,-0.6897 l 0.009,-0.23596 0.17644,-0.0414 c 0.26124,-0.0613 0.7499,-0.12892 0.7499,-0.10382 0,0.006 -0.0478,0.1163 -0.10608,0.24688 -0.16476,0.36832 -0.23162,0.61379 -0.25438,0.9341 -0.0128,0.17195 -0.0184,0.16956 0.14893,0.0574 0.16588,-0.11119 0.40514,-0.3645 0.5496,-0.58186 0.0706,-0.10637 0.23916,-0.4093 0.37439,-0.67323 0.13516,-0.26393 0.27775,-0.53225 0.31671,-0.59624 0.0978,-0.16081 0.24228,-0.35922 0.30733,-0.42228 l 0.0543,-0.0528 0.0998,0.12112 c 0.27324,0.33154 0.31576,0.43473 0.39628,0.96189 0.023,0.15013 0.0459,0.30106 0.0513,0.33537 0.007,0.0461 0.019,0.0645 0.0455,0.0706 0.0197,0.004 0.19168,0.0418 0.38204,0.0831 0.19037,0.0411 0.36328,0.0791 0.38426,0.0844 0.0362,0.008 0.0393,0.0217 0.0593,0.24104 0.0113,0.12736 0.0259,0.23148 0.0316,0.23148 0.0224,0 0.6321,-0.35804 0.76609,-0.44985 0.0815,-0.0559 0.22916,-0.18577 0.34907,-0.30721 l 0.20779,-0.21044 -0.0915,-0.0475 c -0.14361,-0.0746 -0.39901,-0.17173 -0.7666,-0.29135 -0.18633,-0.0607 -0.39727,-0.1326 -0.46873,-0.15992 l -0.12991,-0.0496 0.0114,-0.15212 c 0.0369,-0.51746 0.14025,-0.70759 0.52189,-0.96043 0.14299,-0.0947 0.64884,-0.35034 0.92687,-0.46833 l 0.18575,-0.0789 0.19656,0.12708 c 0.10807,0.0699 0.19846,0.12863 0.20076,0.13062 0.003,0.001 -0.0332,0.0702 -0.079,0.15166 -0.098,0.17443 -0.21124,0.43692 -0.28192,0.65324 -0.0278,0.085 -0.0505,0.15724 -0.0505,0.16051 0,0.003 0.0916,-0.0427 0.20362,-0.10211 2.11725,-1.1238 3.9314,-1.31948 5.3657,-0.57874 0.74982,0.38724 1.44587,1.10585 1.86228,1.92264 0.0553,0.1085 0.10948,0.20004 0.12026,0.20329 0.0113,0.003 0.11317,0.0259 0.22743,0.0503 0.48292,0.10325 1.12867,0.35895 1.67055,0.66151 0.145446,0.0813 0.473036,0.29262 0.556846,0.35938 l 0.0416,0.033 -0.0831,0.0854 c -0.17149,0.17624 -0.38316,0.29938 -0.631656,0.36746 -0.11459,0.0313 -0.17552,0.0365 -0.4405,0.0365 -0.25571,0 -0.37051,-0.008 -0.68151,-0.0528 -0.46758,-0.066 -0.69429,-0.0796 -0.88906,-0.0536 -0.0821,0.0113 -0.15207,0.0227 -0.1554,0.0261 -0.0128,0.0128 0.10508,0.22279 0.18854,0.33425 0.0487,0.065 0.16904,0.21084 0.26746,0.32415 0.23007,0.26485 0.31107,0.37554 0.391,0.53433 0.0813,0.16137 0.11417,0.29909 0.11246,0.46958 -0.001,0.15002 -0.0313,0.31636 -0.0563,0.31479 -0.009,-4e-4 -0.0682,-0.0255 -0.13132,-0.0553 -0.16844,-0.0797 -0.3799,-0.14469 -0.56755,-0.17443 -0.0911,-0.0145 -1.36599,-0.19534 -2.83333,-0.40203 -1.46736,-0.20669 -2.67033,-0.37818 -2.67328,-0.38108 -0.003,-0.003 -0.0128,-0.11076 -0.0224,-0.23976 l -0.017,-0.23451 0.2296,-0.24249 0.2296,-0.24247 0.1404,0.0114 c 0.43754,0.0365 0.62668,-0.0114 1.0926,-0.27387 0.22571,-0.12736 1.21222,-0.73755 1.25052,-0.77349 0.0267,-0.0251 0.0225,-0.034 -0.10792,-0.23431 l -0.0908,-0.13927 -0.0847,0.043 c -0.0465,0.0235 -0.40584,0.21801 -0.79833,0.43201 -0.39251,0.214 -0.72007,0.38909 -0.72791,0.38909 -0.009,0 -0.0936,-0.0513 -0.19066,-0.11403 l -0.17639,-0.11402 0.35802,-0.2974 0.35803,-0.29739 2.4e-4,-0.24293 2.6e-4,-0.24293 -0.15846,-0.0766 c -0.1947,-0.0942 -0.34687,-0.19169 -0.49382,-0.31658 l -0.11203,-0.0952 -0.0708,0.0485 c -0.11757,0.0806 -0.1972,0.11616 -0.79388,0.35426 -0.46616,0.18609 -0.57309,0.23453 -0.57139,0.25891 0.001,0.0165 0.0113,0.10112 0.0228,0.18792 0.0207,0.15707 0.0128,0.56024 -0.0128,0.70648 -0.0113,0.0628 -0.0193,0.0703 -0.14491,0.13629 -0.0732,0.0384 -0.22648,0.10679 -0.34075,0.15213 -0.19736,0.0781 -0.35605,0.12778 -1.08931,0.34025 -0.32386,0.0939 -0.71341,0.22985 -0.76373,0.26666 -0.0233,0.017 0.0211,0.0269 0.26001,0.0576 0.53043,0.0681 0.73604,0.12537 0.97646,0.27204 0.13061,0.0797 0.39096,0.28437 0.63719,0.50085 l 0.16191,0.14236 -0.0667,0.12977 c -0.0367,0.0713 -0.10622,0.17641 -0.15459,0.23335 -0.0891,0.10509 -0.28105,0.27049 -0.31374,0.27049 -0.0286,0 -0.18645,-0.13927 -0.44701,-0.39479 l -0.2427,-0.23796 -0.25763,0.10722 c -0.14168,0.059 -0.3534,0.15276 -0.47043,0.20833 -0.117,0.0556 -0.21906,0.10097 -0.22674,0.10097 -0.007,0 -0.10253,-0.0468 -0.21068,-0.10395 l -0.19673,-0.10396 0.0794,-0.21609 c 0.0437,-0.11885 0.0798,-0.22112 0.0803,-0.22723 7.9e-4,-0.0128 -0.34063,-0.22991 -0.36179,-0.22991 -0.007,0 -0.11743,0.18888 -0.24375,0.41972 -0.12635,0.23086 -0.2316,0.42217 -0.23398,0.42513 -0.003,0.003 -0.0255,-0.006 -0.0516,-0.0187 -0.0669,-0.0342 -0.25152,-0.0729 -0.45019,-0.0944 -0.30702,-0.0333 -0.48927,0.0128 -0.93859,0.23809 -0.7834,0.39259 -1.41233,0.91795 -1.75447,1.46558 -0.33576,0.5374 -0.41939,1.12747 -0.245,1.72879 0.10764,0.37121 0.23835,0.60706 0.4575,0.82556 0.12466,0.12438 0.16804,0.15541 0.31715,0.22735 0.38499,0.18574 0.81145,0.22289 1.64379,0.14318 0.381,-0.0365 0.95619,-0.0493 1.15482,-0.0259 0.18709,0.0221 0.39477,0.0713 0.51062,0.12112 0.0767,0.0329 0.0784,0.0353 0.10338,0.1453 0.0142,0.0615 0.0671,0.33867 0.11799,0.61596 0.0956,0.52093 0.16992,0.8648 0.18682,0.8648 0.006,0 0.0913,-0.0417 0.19114,-0.0927 0.0998,-0.0511 0.18472,-0.0895 0.18872,-0.0855 0.004,0.004 -0.007,0.1 -0.0255,0.21333 -0.0303,0.19093 -0.0523,0.39839 -0.076,0.71632 -0.0114,0.15064 -0.0165,0.14534 0.18286,0.18707 0.18603,0.039 0.47235,0.0513 0.61834,0.0267 0.11302,-0.0191 0.12054,-0.0231 0.13628,-0.0729 0.0759,-0.23956 0.10098,-0.70074 0.0681,-1.25504 -0.0288,-0.48613 -0.0262,-0.91588 0.007,-1.13175 0.0146,-0.0952 0.0285,-0.17519 0.0311,-0.17772 0.01,-0.01 0.30986,0.063 0.5748,0.13814 0.25695,0.0729 0.27425,0.0756 0.31583,0.0511 0.13402,-0.0794 0.16055,-0.22174 0.14632,-0.78577 -0.01,-0.37761 -0.0478,-1.19489 -0.0678,-1.44843 l -0.009,-0.10197 0.2242,-0.1058 c 0.16183,-0.0764 0.22615,-0.11516 0.23123,-0.13913 0.15525,-0.73502 0.35228,-1.16962 0.67414,-1.48704 0.66455,-0.65535 1.77611,-0.52313 3.1524,0.37495 0.20977,0.13686 0.45254,0.31152 0.59397,0.42726 l 0.0486,0.0399 -0.17169,0.16457 c -0.23707,0.22719 -0.43723,0.45301 -0.42645,0.48112 0.004,0.0128 0.0618,0.0936 0.12664,0.17985 0.13331,0.17729 0.1058,0.16467 0.42387,0.19524 0.26503,0.0254 0.57894,0.0113 0.7397,-0.0349 0.30087,-0.0852 0.49927,-0.22313 1.03307,-0.71809 l 0.17366,-0.16101 0.24197,0.0197 0.24198,0.0197 0.14941,0.18285 c 0.19044,0.23313 0.50777,0.58978 0.83566,0.93921 0.596936,0.63621 2.087106,2.11285 3.254406,3.22486 0.24875,0.23697 0.30162,0.29525 0.29329,0.32326 -0.023,0.0774 -0.19358,0.40057 -0.34708,0.65753 -0.26259,0.43959 -0.41049,0.7821 -0.42751,0.98995 l -0.006,0.0613 0.48205,0.12027 c 0.59095,0.14751 0.84396,0.22209 1.03976,0.30652 0.22314,0.0962 0.32206,0.16199 0.4544,0.30224 0.13388,0.14182 0.25469,0.35898 0.40815,0.73334 l 0.0867,0.21134 -0.16336,0.2173 -0.16336,0.2173 -0.10806,-0.008 c -0.0594,-0.004 -0.18659,-0.0164 -0.28259,-0.0257 -0.24665,-0.024 -1.03887,-0.0489 -1.58745,-0.0499 -0.43271,-7.9e-4 -0.84153,-0.0166 -1.10953,-0.043 l -0.11218,-0.0113 v -0.12863 c 0,-0.32903 0.0871,-0.60885 0.34681,-1.11378 0.30003,-0.5834 0.36031,-0.71053 0.42489,-0.89622 0.0467,-0.13431 0.10934,-0.39927 0.10934,-0.4627 0,-0.024 -0.62184,0.0477 -0.91423,0.10538 -1.03098,0.20346 -1.728136,0.64532 -1.947216,1.23413 l -0.0391,0.10523 -0.19947,0.10055 -0.19947,0.1007 -0.21136,-0.0698 c -0.20615,-0.0679 -0.21158,-0.071 -0.22005,-0.12282 -0.0231,-0.14097 -0.0423,-0.3274 -0.0606,-0.58628 l -0.02,-0.28389 -0.56686,0.18111 c -2.30558,0.73664 -2.72165,0.9219 -2.85182,1.26984 -0.0328,0.0876 -0.0808,0.39695 -0.0641,0.41357 0.004,0.004 0.13855,-0.0543 0.29773,-0.13091 1.06638,-0.51296 1.64184,-0.7111 2.06804,-0.71202 0.21715,-3.9e-4 0.36339,0.0409 0.58593,0.1653 l 0.13714,0.0767 v 0.17695 c 0,0.20539 -0.0356,0.43822 -0.0939,0.61399 l -0.041,0.12367 0.18183,0.18183 0.18181,0.18182 0.18063,-0.0363 c 0.21136,-0.0426 0.64913,-0.0804 0.66901,-0.0579 0.007,0.009 0.0532,0.12367 0.10168,0.25622 0.0487,0.1326 0.0945,0.24788 0.10183,0.25624 0.009,0.008 0.06,-0.004 0.12622,-0.0319 0.14346,-0.06 0.52184,-0.2478 0.60557,-0.30066 l 0.064,-0.0403 0.0757,0.10282 c 0.16635,0.226 0.46339,0.76176 0.42923,0.77421 -0.009,0.003 -0.831434,0.38556 -1.830104,0.85042 -1.27036,0.59133 -1.82024,0.83959 -1.83071,0.82655 -0.0505,-0.063 -0.15375,-0.31143 -0.25904,-0.62337 -0.136,-0.40301 -0.21884,-0.60043 -0.2519,-0.60043 -0.033,0 -0.60137,0.20852 -0.82139,0.30142 -0.69343,0.29277 -0.91729,0.57754 -1.09622,1.39454 -0.0454,0.20701 -0.18112,1.00033 -0.20985,1.22616 -0.007,0.0601 -0.0207,0.093 -0.0416,0.1041 -0.0169,0.008 -0.34877,0.0237 -0.74995,0.0332 -0.39575,0.01 -0.75821,0.0208 -0.80543,0.0257 -0.0834,0.008 -0.0889,0.0128 -0.19117,0.13671 -0.2207,0.26794 -0.73076,0.83266 -1.04856,1.16092 l -0.0828,0.0855 0.078,0.2782 c 0.0644,0.22957 0.0742,0.28172 0.056,0.29839 -0.0128,0.0113 -0.0946,0.0814 -0.18328,0.15638 l -0.16116,0.13615 -0.0804,-0.0113 c -0.1187,-0.0157 -0.37296,0.0204 -0.54409,0.0776 -0.23449,0.0781 -0.22357,0.0559 -0.15938,0.32617 0.0674,0.2839 0.13061,0.45568 0.31971,0.86895 l 0.14833,0.32415 -0.0694,0.13303 c -0.15924,0.3054 -0.3736,0.59574 -0.65541,0.88772 -0.24953,0.25855 -0.48981,0.46701 -1.06954,0.92795 -0.2712,0.21562 -0.54545,0.43757 -0.60944,0.49322 -0.66128,0.57501 -1.00616,1.01389 -1.15297,1.46716 -0.0786,0.2427 -0.0937,0.35371 -0.0927,0.67893 0.001,0.37786 0.0278,0.5393 0.21508,1.30492 0.19396,0.79269 0.22594,0.9726 0.23672,1.3321 0.0128,0.43948 -0.035,0.69253 -0.19454,1.02117 -0.0719,0.14826 -0.26614,0.43941 -0.29306,0.43941 -0.043,0 -0.25247,-0.1353 -0.32004,-0.20677 -0.21159,-0.22372 -0.32405,-0.56529 -0.79972,-2.42884 -0.11827,-0.4634 -0.21821,-0.84568 -0.22207,-0.84955 -0.004,-0.004 -0.0701,-0.0113 -0.14712,-0.0169 -0.1459,-0.01 -0.4549,0.0147 -0.61152,0.0496 l -0.0908,0.0203 -0.12182,-0.1275 c -0.13899,-0.14545 -0.29395,-0.27786 -0.48564,-0.41489 l -0.13275,-0.0949 -0.096,0.0299 c -0.17504,0.0545 -0.48364,0.11715 -0.90732,0.18423 -0.49232,0.078 -0.78002,0.13005 -0.80395,0.14555 -0.01,0.006 -0.11274,0.16822 -0.22944,0.36022 -0.11672,0.19198 -0.2173,0.35468 -0.22346,0.36153 -0.006,0.007 -0.12835,-0.017 -0.27141,-0.053 -1.68061,-0.42256 -2.859766,-0.036 -3.533073,1.15809 -0.571908,1.01432 -0.743861,2.69689 -0.467402,4.57375 0.330662,2.24481 0.855301,3.27116 1.578025,3.08707 0.27995,-0.0713 0.48518,-0.21157 0.86472,-0.591 0.33244,-0.33237 0.53206,-0.57192 1.0505,-1.26068 0.30592,-0.40644 0.38627,-0.50251 0.4847,-0.57953 0.26815,-0.20982 0.61165,-0.32892 1.00742,-0.3493 0.38998,-0.0201 0.70438,0.0781 0.82545,0.25774 0.0518,0.0767 0.11842,0.37441 0.13969,0.62329 0.0421,0.49362 -0.044,0.93759 -0.35856,1.84821 -0.26732,0.77382 -0.34701,1.05295 -0.39856,1.39635 -0.0255,0.16952 -0.0333,0.56149 -0.0143,0.71896 l 0.01,0.0872 0.1265,0.04 c 0.28429,0.0898 0.5116,0.0926 1.14878,0.0142 0.45599,-0.0562 0.94329,-0.0628 1.11228,-0.0153 0.33676,0.0949 0.56375,0.30842 0.71057,0.66855 0.17079,0.41893 0.20407,0.8828 0.137,1.90911 -0.0404,0.61834 -0.0367,1.12767 0.01,1.38972 0.0577,0.3238 0.1867,0.64514 0.35302,0.87991 0.15234,0.21501 0.46395,0.48864 0.71374,0.62676 l 0.0861,0.0475 0.11345,-0.0557 c 0.15943,-0.0784 0.27866,-0.16651 0.68685,-0.50794 0.39357,-0.32915 0.36887,-0.31717 0.5476,-0.26577 0.1937,0.0557 0.36864,0.16094 0.75732,0.45555 0.28912,0.21915 0.43452,0.30616 0.61647,0.36888 0.17276,0.0596 0.15872,0.0658 0.3975,-0.17589 0.24995,-0.25296 0.38561,-0.46189 0.75505,-1.16284 0.34388,-0.65245 0.47851,-0.86272 0.70848,-1.10651 0.34145,-0.36198 0.80032,-0.56759 1.27918,-0.5732 l 0.16622,-0.001 0.0113,0.13303 c 0.0165,0.19176 -0.01,0.47388 -0.0893,0.94752 -0.0634,0.37888 -0.0695,0.44127 -0.0691,0.70648 3.9e-4,0.34818 0.0255,0.465 0.15597,0.72551 0.0889,0.17779 0.14906,0.2564 0.14906,0.19502 0,-0.0682 0.17286,-0.72578 0.25808,-0.98158 0.19391,-0.58216 0.3823,-0.87871 0.7589,-1.19471 0.083,-0.0696 0.16001,-0.13019 0.17106,-0.1343 0.0113,-0.004 0.0942,0.0421 0.18481,0.10296 0.21891,0.14704 0.58082,0.32065 1.03741,0.49761 0.61411,0.23805 0.90023,0.36782 1.15905,0.52571 0.12196,0.0745 0.35904,0.25458 0.4104,0.3119 l 0.0319,0.0356 0.11176,-0.2148 c 0.18534,-0.35635 0.28254,-0.47317 0.44498,-0.53478 0.14648,-0.0556 0.41025,-0.0386 0.7592,0.0488 0.20589,0.0516 0.78194,0.21678 1.02636,0.29436 0.0236,0.007 0.0478,-0.0303 0.1292,-0.20288 0.0552,-0.11658 0.102944,-0.21476 0.106204,-0.21805 0.009,-0.008 0.38792,0.0494 0.40881,0.0623 0.0223,0.0142 -0.0817,0.52632 -0.22793,1.12401 l -0.11034,0.45082 0.13771,0.16641 0.1377,0.16642 0.13515,0.0113 c 0.44188,0.0372 0.61196,0.15508 1.9607,1.35984 0.26356,0.23542 0.488,0.42789 0.49875,0.42771 0.0113,-1.9e-4 0.12054,-0.0113 0.24395,-0.0259 0.312,-0.0357 1.01047,-0.0498 1.23042,-0.0248 1.35223,0.15347 2.36146,1.08612 3.3816,3.12498 l 0.18883,0.37739 -0.061,0.11531 c -0.19585,0.37048 -0.33202,0.47824 -1.37383,1.08718 -0.19199,0.11218 -0.36439,0.21355 -0.38309,0.22517 -0.0332,0.0207 -0.0335,0.0264 -0.0142,0.23493 0.0113,0.11758 0.021,0.21939 0.0216,0.22624 10e-4,0.0221 0.32193,0.0128 0.42924,-0.0128 0.22962,-0.0542 0.42633,-0.1604 0.76502,-0.41327 0.40435,-0.30189 0.59341,-0.41646 0.79751,-0.48335 l 0.0874,-0.0286 0.16677,0.15389 c 0.0918,0.0847 0.16373,0.16194 0.16,0.17176 -0.004,0.01 -0.0265,0.0827 -0.0506,0.16205 -0.19042,0.62537 -0.4726,1.06509 -0.8851,1.37926 -0.0858,0.0652 -0.15559,0.12324 -0.15523,0.12877 3.8e-4,0.006 0.0396,0.0374 0.0872,0.0708 0.0477,0.0335 0.12977,0.0918 0.18238,0.12991 l 0.0957,0.0692 0.0993,-0.0947 c 0.12409,-0.11828 0.25475,-0.30927 0.43147,-0.6304 0.17099,-0.31069 0.26207,-0.44876 0.38126,-0.57787 0.10962,-0.11885 0.28887,-0.24085 0.41742,-0.28423 l 0.0915,-0.0308 0.34074,0.0763 c 0.85225,0.19089 1.93356,0.52036 2.85076,0.86865 0.99194,0.37666 2.00983,0.88859 2.64477,1.33016 0.55644,0.38696 0.97514,0.78984 1.24133,1.1944 0.26473,0.40231 0.37813,0.75816 0.37698,1.18285 -0.001,0.40364 0.2183,-0.0872 -2.34683,5.25029 l -2.30077,4.78744 -0.1153,0.0979 c -0.25688,0.2181 -0.60565,0.41203 -1.01286,0.5632 -0.10977,0.0407 -0.42146,0.14278 -0.69278,0.22681 -0.57187,0.17713 -0.81191,0.26477 -1.07752,0.39344 -0.48928,0.23701 -0.86341,0.5798 -1.25042,1.14568 -0.30377,0.44418 -0.52483,0.89047 -0.92222,1.86178 -0.2931,0.7164 -0.38309,0.92358 -0.53794,1.23843 -0.34354,0.69844 -0.64577,1.13158 -0.91914,1.3173 -0.40465,0.27489 -0.88943,0.28176 -1.23561,0.0174 -0.0421,-0.0321 -0.0726,-0.0482 -0.0678,-0.0359 0.004,0.0128 0.0957,0.24467 0.20219,0.51617 l 0.19354,0.49365 -0.12693,0.22114 c -0.40798,0.71075 -0.54631,0.78898 -1.63555,0.92489 l -0.37402,0.0467 -0.01,0.29804 c -0.01,0.27579 -0.0369,0.51487 -0.0623,0.54219 -0.006,0.006 -0.063,3.1e-4 -0.12693,-0.0128 -0.15397,-0.0328 -0.5489,-0.0889 -0.6275,-0.0892 -0.0343,-2e-4 -0.0623,0.006 -0.0623,0.0145 0,0.008 0.0681,0.0866 0.15118,0.1745 0.15196,0.16054 0.36237,0.3323 0.48171,0.39319 0.0469,0.024 0.0617,0.0406 0.0552,0.0618 -0.004,0.016 -0.1598,0.33413 -0.34416,0.70704 l -0.33519,0.67803 0.25744,0.25319 c 0.14154,0.13927 0.30436,0.29675 0.36171,0.34999 l 0.10423,0.0969 -0.10537,0.16884 c -0.0988,0.15829 -0.18714,0.31172 -0.33508,0.58182 l -0.0623,0.11374 0.0369,0.1024 c 0.0808,0.22479 0.16542,0.36175 0.31474,0.50962 0.21783,0.21575 0.41347,0.32071 0.93171,0.49992 l 0.27427,0.0949 -0.0988,0.044 c -0.27818,0.12367 -0.41361,0.16461 -0.56919,0.17224 -0.17653,0.008 -0.27274,-0.0149 -0.54543,-0.13388 l -0.16622,-0.0725 -0.0791,-0.21379 c -0.0435,-0.11757 -0.0817,-0.21635 -0.0848,-0.21948 -0.003,-0.003 -0.0525,0.0712 -0.10977,0.16502 -0.0573,0.0939 -0.10665,0.1735 -0.10962,0.17686 -0.007,0.008 -0.24143,-0.12041 -0.38121,-0.21024 -0.2122,-0.13643 -0.38749,-0.29034 -1.00566,-0.88275 -0.364334,-0.34917 -0.377794,-0.36443 -0.521474,-0.5916 -0.63472,-1.00351 -0.87615,-1.63075 -1.15595,-3.0031 -0.2798,-1.37238 -0.50002,-2.81655 -1.34821,-8.84134 -0.14651,-1.04069 -0.1882,-1.28861 -0.27395,-1.62907 -0.26102,-1.03651 -0.75766,-1.76626 -1.61467,-2.37261 -0.22581,-0.15975 -0.48693,-0.321 -1.00332,-0.61958 -0.53281,-0.30807 -0.84027,-0.50274 -1.08651,-0.68796 -0.69737,-0.52457 -1.02651,-0.99496 -1.89746,-2.71172 -0.8879,-1.7502 -1.20558,-2.24562 -1.91689,-2.98955 -0.12948,-0.13544 -0.2845,-0.30737 -0.34433,-0.38198 -0.68902,-0.85901 -0.92119,-1.76272 -0.73734,-2.87015 0.0788,-0.47499 0.25987,-1.06215 0.56371,-1.82853 0.40757,-1.02804 0.50806,-1.29081 0.60896,-1.59235 0.39034,-1.16642 0.43843,-1.98525 0.16475,-2.80446 -0.073,-0.2185 -0.27007,-0.69767 -0.36235,-0.88104 -0.14864,-0.29533 -0.33706,-0.50864 -0.61657,-0.69803 l -0.14694,-0.0996 -0.0661,0.0746 c -0.0363,0.0411 -0.14154,0.17563 -0.23386,0.29906 -0.0923,0.12338 -0.20585,0.27203 -0.25239,0.33023 -0.1041,0.1302 -0.28682,0.28483 -0.33647,0.28483 -0.0203,0 -0.13302,-0.0482 -0.25059,-0.10708 -1.09039,-0.54579 -3.69016,-2.8012 -7.36205,-6.3869 l -0.55059,-0.53765 h -0.20922 -0.20921 l -0.361943,0.40726 c -0.199069,0.22399 -0.367832,0.40727 -0.375008,0.40727 -0.01418,0 -1.88623,-1.55836 -2.680324,-2.23103 -0.96728,-0.81938 -1.510513,-1.30874 -1.76543,-1.59037 -0.310226,-0.34272 -0.399117,-0.52255 -0.428246,-0.86632 -0.04879,-0.57526 -0.196247,-1.20292 -0.474678,-2.0197 -0.452525,-1.32752 -1.261311,-3.08825 -2.24873,-4.8955 -0.428317,-0.78394 -0.909036,-1.59304 -0.955737,-1.6086 -0.05063,-0.0169 -0.06084,0.70065 -0.01418,0.95727 0.06098,0.33183 0.189241,0.70615 0.367959,1.07443 0.127211,0.26222 0.27368,0.51923 0.587721,1.03141 0.485214,0.79141 0.680327,1.15112 0.832767,1.53539 0.284585,0.71728 0.314764,1.4216 0.08977,2.09413 -0.03248,0.0971 -0.07204,0.20198 -0.08793,0.23293 l -0.02893,0.0563 -0.1599,-0.16406 c -0.462538,-0.47454 -0.721794,-0.86963 -1.362072,-2.07571 -0.316168,-0.59557 -0.470693,-0.86835 -0.644987,-1.13868 l -0.112603,-0.17454 0.181966,-0.54409 0.181967,-0.54408 -0.131324,-0.24551 c -0.9899,-1.85143 -1.688777,-3.54923 -2.0209,-4.90936 -0.331839,-1.35901 -0.375944,-2.45546 -0.150383,-3.73913 0.02326,-0.1326 0.251712,-1.25464 0.507593,-2.49346 1.064128,-5.15185 1.312267,-6.39395 1.429691,-7.15625 0.03928,-0.25482 0.05148,-0.64481 0.02184,-0.69484 -0.01461,-0.0245 -0.04978,0.0495 -0.197665,0.41558 -0.292144,0.72334 -0.401443,0.93712 -0.621147,1.21491 -0.133024,0.16819 -0.14437,0.15991 -0.128628,-0.0939 0.0329,-0.5291 0.13657,-0.8945 0.554946,-1.95645 0.100974,-0.2565 0.218314,-0.56693 0.260604,-0.68986 0.304553,-0.88539 0.316863,-1.48693 0.04198,-2.05313 -0.107927,-0.22235 -0.247901,-0.40927 -0.47054,-0.62833 l -0.183527,-0.18058 -0.08452,0.0974 c -0.378525,0.43622 -0.524725,0.56319 -0.733168,0.63677 l -0.122814,0.0434 -0.180789,0.24062 c -2.194031,2.92009 -4.107178,6.23587 -5.572267,9.65759 -2.979233,6.95798 -4.206564,14.50213 -3.598153,22.11704 0.859486,10.75757 5.364093,20.79618 12.825895,28.58283 0.401939,0.41944 1.42338,1.43384 1.792957,1.78061 5.486467,5.14794 11.963743,8.84133 19.107523,10.89527 3.82183,1.09884 7.75776,1.69843 11.839998,1.80368 0.61398,0.0157 2.12743,0.006 2.76281,-0.0172 z M 89.235344,152.11481 c -0.0908,-0.0323 -0.14872,-0.0944 -0.20752,-0.22219 -0.13033,-0.28323 -0.10182,-0.67848 0.0613,-0.84977 0.21841,-0.22937 0.56272,-0.0242 0.66112,0.39384 0.0735,0.31191 -0.058,0.60518 -0.30422,0.67932 -0.0943,0.0284 -0.12835,0.0282 -0.2107,-10e-4 z m 7.10721,-0.97516 c -0.293,-0.14504 -0.36293,-0.80281 -0.11204,-1.05373 0.28173,-0.28174 0.72367,0.0586 0.72367,0.55723 0,0.16469 -0.0342,0.2615 -0.13005,0.36808 -0.13912,0.15475 -0.32716,0.20488 -0.48163,0.12849 z m -3.16997,-0.14626 c -0.18013,-0.0464 -0.39968,-0.12353 -0.97241,-0.34165 -0.30979,-0.118 -0.56818,-0.19648 -0.71062,-0.21594 -0.0479,-0.007 -0.0872,-0.0169 -0.0872,-0.023 0,-0.006 0.0685,-0.097 0.15233,-0.20207 0.19327,-0.24239 0.58053,-0.62806 0.75428,-0.75121 0.62218,-0.44097 1.23583,-0.5007 1.84923,-0.18003 0.36671,0.19172 0.71062,0.56935 0.85172,0.93523 0.097,0.2516 0.0991,0.45467 0.007,0.66038 l -0.0433,0.0963 -0.0371,-0.0372 c -0.0706,-0.0705 -0.22847,-0.0719 -0.675,-0.006 -0.12338,0.0183 -0.31332,0.0513 -0.42201,0.0735 -0.26729,0.0543 -0.43112,0.0523 -0.66675,-0.008 z m -2.98526,-1.78029 c -0.40021,-0.11431 -1.04377,-0.50398 -1.62747,-0.9855 -0.0777,-0.0641 -0.24602,-0.2226 -0.37401,-0.3522 -0.20435,-0.20692 -0.24478,-0.24016 -0.33169,-0.27266 -0.23402,-0.0875 -0.51335,-0.0838 -1.26424,0.0166 -0.44734,0.0599 -0.91202,0.081 -1.07538,0.0488 -0.17023,-0.0335 -0.272,-0.10253 -0.3348,-0.22714 -0.0319,-0.0632 -0.0672,-0.27257 -0.0489,-0.28991 0.022,-0.0208 0.55394,-0.2416 0.77243,-0.32052 0.37458,-0.1353 0.55511,-0.17958 0.89316,-0.21912 0.34753,-0.0407 0.64396,-1.7e-4 0.90747,0.12395 0.13954,0.0657 0.18735,0.10169 0.44681,0.336 0.19484,0.17594 0.3467,0.2659 0.9998,0.59232 0.77636,0.38801 1.07496,0.57269 1.3226,0.81801 0.18713,0.18536 0.23959,0.28829 0.23811,0.46723 -0.001,0.14826 -0.0396,0.22788 -0.13019,0.27095 -0.0756,0.0359 -0.25469,0.0328 -0.39353,-0.007 z m -1.38645,-3.43102 c -0.0842,-0.0309 -0.1855,-0.14292 -0.20941,-0.23171 -0.0293,-0.10892 -0.0113,-0.2335 0.0448,-0.31362 0.0712,-0.10126 0.17302,-0.1482 0.32044,-0.14773 0.25218,7.9e-4 0.43441,0.15904 0.43424,0.37706 -1.8e-4,0.12963 -0.0834,0.23337 -0.23993,0.29877 -0.0917,0.0383 -0.26885,0.0471 -0.3501,0.0172 z m 52.568516,-11.33876 c -0.16133,-0.0515 -0.45369,-0.32472 -0.7734,-0.72279 -0.16523,-0.20574 -0.35137,-0.45919 -0.38936,-0.53018 -0.0416,-0.0776 0.0679,-0.13884 0.24778,-0.13884 0.47613,3.3e-4 1.03455,0.39472 1.15881,0.8185 0.0319,0.10878 0.0363,0.3653 0.009,0.45087 -0.04,0.12013 -0.12665,0.16232 -0.25169,0.12239 z m -2.88807,-1.89548 c -0.28131,-0.14012 -0.50593,-0.59886 -0.5083,-1.03793 -0.001,-0.28448 0.0525,-0.39895 0.18815,-0.39895 0.0373,0 0.0964,0.0146 0.13146,0.0323 0.24377,0.12438 0.47115,0.65356 0.47174,1.09795 2.6e-4,0.1867 -0.0323,0.28688 -0.10565,0.32479 -0.0633,0.0326 -0.0783,0.0312 -0.17739,-0.0183 z m -2.5724,-0.17277 c -0.0183,-0.007 -0.0519,-0.0339 -0.0747,-0.0586 -0.0349,-0.0376 -0.0413,-0.0601 -0.0399,-0.13998 0.004,-0.26565 0.10083,-0.40771 0.21934,-0.32469 0.0649,0.0455 0.14025,0.21828 0.14919,0.34235 0.007,0.10239 0.004,0.11417 -0.0349,0.15376 -0.0333,0.0333 -0.0588,0.0427 -0.1143,0.0418 -0.0393,-3.9e-4 -0.0864,-0.007 -0.10467,-0.0147 z m -5.356,-7.593 c -0.0695,-0.0346 -0.0987,-0.1007 -0.11175,-0.25387 -0.006,-0.0685 -0.0146,-0.15148 -0.0193,-0.18425 l -0.009,-0.0596 -0.11956,0.0233 c -0.0733,0.0143 -0.19019,0.021 -0.30237,0.0176 -0.15363,-0.004 -0.19746,-0.0128 -0.27437,-0.0482 -0.17334,-0.0804 -0.27001,-0.222 -0.30028,-0.43968 -0.0479,-0.3445 0.11827,-0.90526 0.38721,-1.30628 l 0.074,-0.11048 -0.12621,-0.0712 c -0.33813,-0.19078 -0.93325,-0.57699 -1.3106,-0.85054 -1.23011,-0.89172 -1.64155,-1.51257 -1.20064,-1.81173 0.3056,-0.20737 0.71143,-0.28065 1.36789,-0.24701 0.60052,0.0308 0.8323,0.1031 0.9579,0.29883 0.0662,0.10325 0.0943,0.23852 0.1163,0.56125 0.0373,0.54619 0.14346,0.76735 0.57332,1.19442 0.18992,0.18867 0.36944,0.33826 0.85734,0.71442 0.59933,0.46206 0.8466,0.69679 1.114,1.05759 0.24348,0.32852 0.32871,0.52213 0.34396,0.78137 0.0113,0.2019 -0.0276,0.35135 -0.12239,0.46191 -0.0804,0.094 -0.14167,0.11799 -0.30034,0.11771 -0.14346,-2.4e-4 -0.25677,-0.0233 -0.5283,-0.10736 -0.4579,-0.14185 -0.62124,-0.16385 -0.69598,-0.0937 -0.0233,0.0218 -0.0692,0.10395 -0.10211,0.18255 -0.0329,0.0786 -0.0718,0.15619 -0.0864,0.17235 -0.0326,0.0362 -0.11104,0.0365 -0.1829,7.9e-4 z m -2.4898,-0.46002 c -0.39223,-0.12438 -0.76472,-0.5491 -0.93871,-1.07031 -0.0973,-0.29146 -0.12309,-0.46186 -0.12366,-0.81805 -4e-4,-0.28289 0.004,-0.34318 0.037,-0.47374 0.0837,-0.33231 0.24599,-0.54279 0.46032,-0.59662 0.61547,-0.15462 1.11664,0.33163 1.30663,1.26774 0.0481,0.23653 0.0597,0.65781 0.0248,0.89379 -0.0773,0.52366 -0.29602,0.82211 -0.6002,0.81922 -0.0549,-4e-4 -0.12962,-0.01 -0.16623,-0.022 z m -20.32355,-5.25175 c -0.11757,-0.044 -0.2071,-0.11076 -0.40364,-0.30158 -0.29865,-0.28982 -0.36375,-0.31447 -0.74902,-0.28368 -0.21859,0.0174 -0.30562,-0.001 -0.55088,-0.12353 -0.31132,-0.15414 -1.04575,-0.63541 -1.20661,-0.7907 -0.22691,-0.21902 -0.49697,-0.68647 -0.52284,-0.905 -0.0128,-0.10878 0.003,-0.16107 0.0573,-0.18985 0.0338,-0.0179 0.039,-0.0264 0.0206,-0.0329 -0.0142,-0.004 -0.0981,-0.0326 -0.18768,-0.0618 -0.34359,-0.1119 -0.54518,-0.28647 -0.71084,-0.61551 -0.17676,-0.3511 -0.17825,-0.56243 -0.007,-1.06191 0.0468,-0.137 0.10807,-0.36768 0.10807,-0.40702 0,-0.003 -0.0379,-0.0184 -0.0842,-0.0339 -0.27001,-0.0896 -0.60553,-0.43694 -0.72253,-0.74779 -0.0553,-0.147 -0.0569,-0.3117 -0.004,-0.3922 0.0899,-0.13586 0.4192,-0.21351 0.76579,-0.18067 0.25803,0.0244 0.35959,0.0694 0.42013,0.18571 0.0357,0.0686 0.0281,0.239 -0.0191,0.42612 l -0.0424,0.1684 0.0331,0.0746 c 0.0588,0.13303 0.19673,0.17746 0.34348,0.11076 0.31781,-0.14436 0.19629,-0.58144 -0.32032,-1.15211 -0.19696,-0.21757 -0.25648,-0.26286 -0.34551,-0.26286 -0.13275,0 -0.27151,0.082 -0.76732,0.45331 -0.23294,0.17446 -0.30614,0.22145 -0.31966,0.20518 -0.0328,-0.0396 -0.099,-0.2373 -0.12466,-0.37307 -0.0142,-0.0744 -0.0374,-0.30182 -0.0516,-0.50511 -0.0447,-0.63546 -0.11515,-0.85435 -0.3499,-1.08567 -0.17061,-0.16812 -0.52862,-0.32922 -0.99616,-0.44828 -0.28546,-0.0727 -0.42643,-0.0882 -0.98162,-0.10821 -1.111576,-0.04 -1.339236,-0.12707 -1.368916,-0.52359 l -0.01,-0.13303 -0.0621,0.13005 c -0.0801,0.16772 -0.22537,0.39092 -0.33932,0.52127 -0.11189,0.12806 -0.27172,0.23795 -0.346,0.23795 -0.0443,0 -0.15597,-0.0752 -0.6256,-0.42085 -0.31448,-0.23147 -0.58487,-0.42572 -0.60087,-0.43168 -0.0472,-0.0176 -0.0336,-0.0557 0.0416,-0.11686 0.13189,-0.10693 0.19721,-0.13119 0.81731,-0.30285 0.21867,-0.0606 0.43567,-0.12438 0.4822,-0.14182 0.0498,-0.0186 0.3543,-0.22181 0.7393,-0.49326 l 0.65471,-0.46159 0.036,-0.10098 c 0.094,-0.26365 0.2251,-0.36433 0.626526,-0.48109 0.45012,-0.13091 0.56744,-0.20731 0.67863,-0.44172 0.0286,-0.0603 0.0834,-0.14027 0.12182,-0.17769 0.25806,-0.25183 0.84739,-0.4182 1.48382,-0.41894 0.32729,-3.6e-4 0.39441,0.0113 0.73045,0.12538 0.56184,0.19095 0.64647,0.13544 1.10843,-0.72763 l 0.15686,-0.29305 0.0821,0.0661 c 0.117,0.0943 0.26819,0.19722 0.28972,0.19722 0.01,0 0.0391,-0.0113 0.0645,-0.0238 0.0363,-0.0187 0.0503,-0.0428 0.066,-0.11219 0.11856,-0.52843 0.95881,-0.90437 2.35465,-1.05346 0.65855,-0.0703 1.73019,0.0457 2.0874,0.22606 l 0.10239,0.0516 -0.0467,0.0486 c -0.0257,0.0268 -0.0434,0.0487 -0.0393,0.0487 0.004,-4e-5 0.10112,-0.0184 0.21575,-0.0409 0.5078,-0.0994 1.04163,-0.0943 1.25429,0.0128 0.0387,0.0194 0.26771,0.23201 0.54854,0.50937 0.60781,0.60031 0.9618,0.90494 1.37768,1.18567 0.23125,0.15609 0.34476,0.20385 0.48404,0.20371 0.169,-2e-4 0.26742,-0.0588 0.55361,-0.3303 0.28823,-0.27332 0.36757,-0.31821 0.56008,-0.31691 0.11204,8e-4 0.14742,0.009 0.22441,0.0477 0.1841,0.0942 0.29833,0.22151 0.32237,0.3593 0.0167,0.0962 -0.02,0.23988 -0.11388,0.44563 -0.2199,0.48192 -0.28836,0.87947 -0.2087,1.21175 0.0818,0.3416 0.29657,0.60497 0.69118,0.8479 l 0.15076,0.0927 0.0186,0.12792 c 0.0272,0.18703 0.0709,0.30254 0.25456,0.67283 0.19388,0.39103 0.23788,0.53488 0.22893,0.74844 -0.003,0.076 -0.01,0.14253 -0.0156,0.14792 -0.0142,0.0142 -0.2694,-0.0326 -0.4972,-0.0901 -0.37312,-0.0939 -0.61911,-0.10055 -0.68369,-0.0184 -0.0235,0.0301 -0.0315,0.0586 -0.0258,0.0932 0.0302,0.18215 0.20551,0.4627 0.50365,0.80622 0.25353,0.29213 0.37684,0.45924 0.45804,0.62076 0.075,0.14923 0.13005,0.34449 0.13005,0.46121 v 0.0793 l -0.092,0.0345 c -0.14373,0.0538 -0.30799,0.0478 -0.4352,-0.0157 -0.14054,-0.0702 -0.32184,-0.26623 -0.5449,-0.58913 -0.32947,-0.47695 -0.52481,-0.64271 -0.75834,-0.64352 -0.11445,-3.9e-4 -0.29718,0.056 -0.29718,0.0918 0,0.0486 0.14777,0.21904 0.33829,0.39011 0.17902,0.16077 0.50898,0.40873 0.81749,0.61436 0.24531,0.1635 0.47322,0.36942 0.47322,0.42756 0,0.0625 -0.2885,0.24154 -0.51965,0.32236 -0.26223,0.0918 -0.43758,0.11771 -1.30051,0.19316 -0.75736,0.0662 -1.16179,0.23055 -1.43135,0.58168 -0.1299,0.16915 -0.25067,0.44819 -0.27982,0.64623 -0.0142,0.0949 -0.0455,0.13118 -0.1842,0.21167 -0.29629,0.17204 -0.55362,0.23175 -1.21303,0.28142 -0.45899,0.0346 -0.85304,0.12523 -0.98641,0.22697 -0.071,0.0542 -0.11813,0.15698 -0.11856,0.25873 -1.8e-4,0.0435 0.0221,0.17996 0.0495,0.30324 0.0574,0.25828 0.063,0.40194 0.0189,0.49884 -0.0295,0.065 -0.13274,0.17099 -0.1732,0.17782 -0.0113,0.001 -0.11374,0.004 -0.22798,0.004 l -0.20777,7.9e-4 -0.0374,0.0742 c -0.0448,0.0889 -0.0488,0.21845 -0.0128,0.39127 0.0142,0.064 0.0291,0.17621 0.0342,0.24936 0.0366,0.51429 -0.32272,1.0262 -0.73675,1.04974 -0.0696,0.004 -0.13544,-0.003 -0.17313,-0.0163 z m -16.995726,-0.44295 c -0.0438,-0.0177 -0.10367,-0.0923 -0.11714,-0.14609 -0.0258,-0.10311 0.10197,-0.22916 0.28171,-0.27782 0.24992,-0.0677 0.37424,0.085 0.23753,0.29153 -0.0774,0.117 -0.27727,0.18282 -0.40214,0.13232 z m -1.08198,-0.44937 c -0.1282,-0.0264 -0.22102,-0.0952 -0.22102,-0.16346 0,-0.0608 0.12636,-0.17501 0.23288,-0.21041 0.12238,-0.0407 0.22163,-0.0268 0.2886,0.0401 0.0923,0.0923 0.064,0.25246 -0.056,0.31721 -0.0426,0.023 -0.17118,0.0316 -0.24441,0.0166 z m 29.857316,-1.5042 c -0.92047,-0.13019 -1.57361,-0.46426 -1.85281,-0.94751 -0.0746,-0.12906 -0.13189,-0.32069 -0.14429,-0.48273 l -0.0113,-0.14591 0.30601,0.01 c 0.16831,0.006 0.51172,0.0295 0.76314,0.0528 0.93065,0.0864 1.19843,0.0881 1.5101,0.01 0.19483,-0.0489 0.29373,-0.0557 0.50859,-0.0345 0.36427,0.0359 0.59539,0.12409 0.769,0.29363 0.13189,0.12877 0.17885,0.2414 0.17907,0.42955 1.9e-4,0.13303 -0.006,0.16171 -0.0513,0.25846 -0.0672,0.14195 -0.13757,0.22025 -0.28433,0.31619 -0.13941,0.0912 -0.33655,0.16648 -0.56561,0.21613 -0.21371,0.0464 -0.86908,0.0601 -1.12635,0.0238 z m -33.969326,-3.20242 c -0.0267,-0.0499 -0.0113,-0.13955 0.0669,-0.38535 0.0369,-0.11629 0.0712,-0.23923 0.0762,-0.27331 0.0155,-0.1058 0.004,-0.11076 -0.26992,-0.12125 -0.35881,-0.0142 -0.46055,-0.0671 -0.39425,-0.20684 0.0811,-0.17078 0.50611,-0.39146 0.88065,-0.45721 0.16051,-0.0282 0.52107,-0.0143 0.62945,0.0242 0.19286,0.0685 0.26734,0.15731 0.26592,0.31692 -0.001,0.19545 -0.17583,0.43765 -0.51698,0.71934 -0.4246,0.35059 -0.68351,0.48512 -0.73794,0.38343 z m 1.8916,-0.86224 c -0.2222,-0.0566 -0.23386,-0.16274 -0.0379,-0.34456 0.25113,-0.23292 0.73307,-0.44232 1.10158,-0.47863 0.2419,-0.0238 0.38448,0.0559 0.36424,0.20361 -0.0363,0.26438 -0.36423,0.49198 -0.85816,0.59547 -0.15223,0.0319 -0.48404,0.046 -0.56986,0.0241 z m -4.90323,-0.5742 c -0.17944,-0.0435 -0.24504,-0.0993 -0.24504,-0.20845 0,-0.0468 0.0174,-0.0833 0.0754,-0.15792 0.10254,-0.13204 0.12182,-0.22532 0.0487,-0.23585 -0.0184,-0.003 -0.16594,0.0628 -0.32787,0.14545 -0.16193,0.0827 -0.30389,0.15016 -0.31545,0.15002 -0.0996,-0.001 -0.062,-0.0895 0.13331,-0.31193 0.13459,-0.15349 0.2192,-0.29147 0.21955,-0.35821 1.8e-4,-0.0359 0.033,-0.0411 -0.45696,0.0725 -0.5267,0.12197 -0.61921,0.1387 -0.77294,0.13984 -0.13246,7.9e-4 -0.14167,-0.001 -0.14641,-0.0349 -0.0128,-0.0847 0.28492,-0.29271 0.47458,-0.33246 0.136,-0.0285 0.17018,-0.0496 0.28682,-0.17751 0.11587,-0.12707 0.24591,-0.18977 0.71656,-0.34564 0.39382,-0.13047 0.51509,-0.1536 0.63767,-0.12196 0.0998,0.0258 0.13459,0.0654 0.17034,0.19385 0.0336,0.12098 0.0803,0.16955 0.2294,0.23902 0.15256,0.071 0.20036,0.11034 0.24783,0.20398 0.0694,0.13672 0.12792,0.16428 0.26424,0.12452 0.1082,-0.0315 0.27328,-0.11941 0.50994,-0.27164 0.25464,-0.16374 0.42419,-0.25279 0.46916,-0.24641 0.0539,0.007 0.0559,0.0621 0.006,0.16135 -0.0543,0.10736 -0.0547,0.17408 -10e-4,0.2275 0.0501,0.0501 0.0644,0.0475 0.31501,-0.0547 0.1,-0.0409 0.22108,-0.0782 0.26924,-0.0833 0.083,-0.009 0.0881,-0.007 0.098,0.0328 0.02,0.0799 -0.1517,0.33971 -0.36739,0.556 -0.30345,0.3043 -0.98992,0.5846 -1.67977,0.68589 -0.27622,0.0406 -0.70739,0.0445 -0.85818,0.009 z m 2.55197,-0.24221 c -0.0234,-0.0234 0.015,-0.12693 0.10267,-0.27655 0.17257,-0.29447 0.54508,-0.69892 0.71325,-0.77441 0.23727,-0.10651 0.4607,-0.14402 0.9276,-0.15564 0.57918,-0.0145 0.79527,0.0372 0.79527,0.18989 0,0.10708 -0.0896,0.23345 -0.27306,0.38511 -0.32341,0.26743 -0.73084,0.45563 -0.85644,0.39561 -0.0305,-0.0146 -0.0488,-0.0468 -0.0725,-0.1275 -0.0174,-0.0594 -0.0465,-0.12877 -0.0645,-0.15402 -0.137,-0.19248 -0.43602,-0.0929 -0.93472,0.31122 -0.18248,0.14789 -0.28807,0.2251 -0.30784,0.2251 -0.006,0 -0.0194,-0.009 -0.0298,-0.0189 z m 5.74693,-0.13104 c -0.61485,-0.025 -0.96717,-0.0799 -1.18019,-0.18404 -0.13346,-0.0652 -0.16253,-0.0904 -0.52428,-0.45355 -0.37944,-0.38097 -0.57685,-0.60607 -0.64251,-0.73266 -0.0627,-0.12083 -0.0201,-0.27719 0.13912,-0.51208 0.0356,-0.0526 0.0695,-0.0956 0.0753,-0.0956 0.006,0 0.006,0.004 0,0.01 -0.0306,0.0305 0.0414,0.0772 0.24145,0.156 0.56128,0.22136 0.71333,0.3351 0.88423,0.66144 0.1282,0.24469 0.21997,0.33328 0.40646,0.3922 0.34836,0.11005 0.59226,0.12764 1.69757,0.12239 0.88218,-0.004 0.91147,-0.003 1.11677,0.0337 0.31261,0.0566 0.34949,0.0695 0.36598,0.12849 0.0128,0.0441 0.007,0.0555 -0.0488,0.10481 -0.29981,0.265 -1.34168,0.41661 -2.53103,0.36833 z m -2.7812,-0.13927 c -0.13374,-0.0498 -0.16472,-0.13643 -0.0867,-0.24223 0.13501,-0.18311 0.44888,-0.27659 0.56433,-0.16811 0.10651,0.10013 0.0467,0.31207 -0.11147,0.39453 -0.0723,0.0377 -0.28309,0.0468 -0.36625,0.0159 z m -3.87609,-1.18754 c -0.20372,-0.0613 -0.25771,-0.11658 -0.19528,-0.20017 0.0377,-0.0505 0.11856,-0.0936 0.5859,-0.31232 0.3987,-0.18658 0.60335,-0.26842 0.70677,-0.28258 0.0655,-0.009 0.0744,-0.007 0.0744,0.0211 -2e-4,0.0623 -0.0737,0.1523 -0.33809,0.41368 -0.32546,0.32175 -0.41286,0.37704 -0.60891,0.38509 -0.0855,0.004 -0.1566,-0.004 -0.22482,-0.0248 z m 3.18894,-0.13402 c -0.15989,-0.0631 -0.3818,-0.18425 -0.55767,-0.30444 -0.12225,-0.0835 -0.20049,-0.1555 -0.27884,-0.25642 -0.0176,-0.0227 0.0328,-0.0706 0.17753,-0.16948 0.14125,-0.0964 0.29349,-0.16508 0.43028,-0.19405 0.29537,-0.0626 0.72513,0.007 0.7898,0.12778 0.0265,0.0495 0.007,0.3052 -0.0352,0.47176 -0.0889,0.34776 -0.23659,0.43896 -0.52589,0.3248 z m 60.290256,57.63792 c 0.006,-0.0148 0.003,-0.0214 -0.007,-0.0156 -0.009,0.006 -0.0165,0.0172 -0.0165,0.0258 0,0.024 0.0113,0.0187 0.023,-0.01 z m -1.16265,-2.2373 c 0.28483,-0.31679 0.73235,-1.22628 0.87406,-1.77632 0.0479,-0.18605 0.0543,-0.43445 0.0128,-0.47651 -0.0275,-0.0275 -0.0312,-0.0272 -0.0749,0.004 -0.18946,0.13941 -0.65114,1.12269 -0.85926,1.82995 -0.0974,0.33122 -0.1153,0.50352 -0.0522,0.50352 0.0128,0 0.0576,-0.0384 0.0998,-0.0855 z m 4.71349,-9.99644 0.11388,-0.14961 0.059,-0.42388 c 0.0915,-0.6566 0.2094,-1.63476 0.2094,-1.73717 0,-0.036 -0.008,-0.0315 -0.079,0.045 -0.0818,0.0882 -0.31929,0.28547 -0.33029,0.27448 -0.004,-0.004 -0.11487,-0.77987 -0.24766,-1.72539 -1.19485,-8.50953 -1.37336,-9.61123 -1.68166,-10.37904 -0.097,-0.24144 -0.23441,-0.49515 -0.25993,-0.47974 -0.0242,0.0146 -0.2638,0.18857 -0.2828,0.20534 -0.007,0.007 0.0462,0.20575 0.11983,0.4422 0.42873,1.37831 0.63396,2.17298 0.86443,3.34726 0.41009,2.08947 0.80511,5.45174 1.15811,9.85749 0.0428,0.53485 0.0811,0.98309 0.0849,0.99611 0.01,0.0335 0.13133,-0.0886 0.27176,-0.27301 z M 84.882234,132.05485 c 0.12182,-0.11686 0.20156,-0.33073 0.41178,-1.10483 0.15493,-0.57055 0.25172,-0.87393 0.36593,-1.14688 0.29179,-0.69746 0.69578,-1.06935 1.16166,-1.06935 0.17612,0 0.27282,0.0328 0.35068,0.11899 0.0818,0.0906 0.12012,0.18761 0.14154,0.35931 0.0196,0.15703 0.0142,0.28205 -0.0352,0.7914 -0.0491,0.50705 -0.042,0.6212 0.0447,0.72425 0.0676,0.0804 0.14679,0.0952 0.28319,0.0529 0.34771,-0.10793 0.48162,-0.37963 0.60321,-1.22395 0.0519,-0.36003 0.0973,-0.566 0.1505,-0.68154 l 0.0306,-0.0665 0.001,0.10126 c 0.001,0.0777 0.0128,0.12481 0.0521,0.20254 0.0842,0.1686 0.29496,0.33842 0.45085,0.36334 0.0437,0.007 0.0685,-10e-4 0.11714,-0.0381 0.0529,-0.0403 0.0618,-0.0566 0.0621,-0.1136 10e-4,-0.27389 -0.23504,-0.62967 -0.62587,-0.94066 -0.12991,-0.10325 -0.17583,-0.11899 -0.50371,-0.17234 -0.49884,-0.0811 -1.01497,-0.13062 -1.3796,-0.13232 -0.26995,-0.001 -0.30287,0.001 -0.45712,0.045 -0.34046,0.095 -0.55061,0.20812 -0.74772,0.40242 -0.22102,0.21785 -0.36788,0.49071 -0.4598,0.85428 -0.0597,0.23624 -0.29389,1.39591 -0.36454,1.80542 -0.0685,0.39671 -0.0739,0.63041 -0.0173,0.7453 0.0243,0.0492 0.0692,0.10254 0.1163,0.13757 0.0956,0.0712 0.16259,0.0675 0.24727,-0.0142 z m 3.96019,-0.74741 c 1.47115,-0.75759 2.17754,-1.24079 2.15753,-1.47584 -0.01,-0.12395 -0.22678,-0.19181 -0.61163,-0.19181 -0.38438,0 -0.46686,0.0356 -0.98529,0.42562 -0.57944,0.43588 -1.07418,0.85996 -1.50976,1.29412 -0.32498,0.32391 -0.53024,0.58092 -0.53024,0.66392 0,0.0179 0.90106,-0.41818 1.47939,-0.71601 z m 55.893026,-0.13048 c 0.0457,-0.0199 0.22478,-0.0913 0.39792,-0.15901 0.19903,-0.0777 0.33204,-0.13941 0.36165,-0.1678 0.0257,-0.0247 0.0837,-0.1163 0.12849,-0.20373 0.14478,-0.28145 0.24971,-0.33547 0.45829,-0.2359 0.12991,0.0621 0.26181,0.16102 0.4604,0.34564 0.17274,0.16059 0.29609,0.23329 0.47286,0.27867 0.13175,0.0337 0.20014,0.0331 0.27069,-0.003 0.17129,-0.0874 0.16467,-0.27331 -0.0265,-0.74385 -0.17395,-0.42819 -0.44487,-0.84892 -0.81349,-1.26336 -0.0813,-0.0915 -0.38085,-0.39812 -0.66561,-0.68154 -0.28536,-0.28403 -0.54437,-0.55636 -0.57704,-0.60675 -0.0695,-0.10707 -0.10253,-0.23891 -0.11828,-0.47189 -0.006,-0.0903 -0.0245,-0.20751 -0.041,-0.26028 -0.0302,-0.0969 -0.0906,-0.19873 -0.11785,-0.19873 -0.009,0 -0.0234,0.0318 -0.034,0.0706 -0.0224,0.0825 -0.0147,0.23591 0.0438,0.88336 0.0638,0.70388 0.0577,0.75711 -0.0764,0.6683 -0.0837,-0.0553 -0.17311,-0.17685 -0.41402,-0.56213 -0.41415,-0.66238 -0.58698,-0.89294 -0.71796,-0.95774 l -0.0695,-0.0343 -0.0472,0.0336 c -0.0468,0.0333 -0.0472,0.0353 -0.0472,0.20919 0,0.22237 0.0315,0.42285 0.13516,0.86109 0.14791,0.62541 0.15011,0.63898 0.16441,1.01402 0.0113,0.31174 0.0186,0.36878 0.0634,0.53329 0.0676,0.24879 0.1404,0.43865 0.3428,0.89377 0.16388,0.36854 0.26436,0.61913 0.30936,0.77149 0.0186,0.0633 0.0237,0.0682 0.0474,0.0469 0.0146,-0.0128 0.0638,-0.0401 0.10948,-0.06 z m 3.23181,-1.38144 c -0.22857,-0.5252 -0.48797,-1.08923 -0.76732,-1.66844 -0.27636,-0.57304 -0.65656,-1.31686 -0.68074,-1.33179 -0.0281,-0.0174 -0.0435,0.0265 -0.035,0.0997 0.0128,0.10906 0.15974,0.53151 0.2879,0.82738 0.2241,0.51734 0.69024,1.38864 1.10144,2.05876 0.10935,0.17828 0.2109,0.34424 0.22558,0.36879 0.0614,0.10268 0.0278,0.0128 -0.13189,-0.35434 z m -78.102829,-1.71825 c 0.09275,-0.0709 0.166778,-0.21201 0.204728,-0.3907 0.03914,-0.18447 0.0234,-0.65964 -0.03262,-0.9824 -0.06651,-0.38283 -0.195382,-0.85725 -0.227574,-0.83736 -0.0346,0.0214 -0.06368,0.38152 -0.08069,0.99692 -0.01418,0.50602 -0.0012,1.18011 0.02354,1.24257 0.01588,0.04 0.02553,0.0374 0.112603,-0.0291 z m 13.934053,-0.37318 c 0.17332,-0.0415 0.25403,-0.0737 0.60575,-0.24177 0.32639,-0.1559 0.51393,-0.22457 0.61329,-0.22457 0.0618,0 0.0723,0.007 0.13175,0.0872 0.17137,0.23186 0.40506,0.34403 0.71779,0.34453 0.22097,3.8e-4 0.51996,-0.10141 0.69589,-0.23683 0.14675,-0.11289 0.33084,-0.38935 0.30566,-0.45887 -0.0793,-0.21855 -0.89188,-0.98387 -1.1154,-1.05043 -0.0545,-0.0162 -0.075,-0.0114 -0.20197,0.0424 -0.3003,0.12849 -0.83888,0.42905 -1.22379,0.68291 -0.57652,0.38023 -0.87065,0.68597 -0.87065,0.90503 0,0.0623 0.009,0.085 0.0457,0.11984 0.074,0.0698 0.11501,0.0739 0.29601,0.0306 z m 54.695226,-9.55357 c 0,-0.0244 -0.0225,-0.0794 -0.0501,-0.12225 -0.0576,-0.0898 -0.34345,-0.3721 -0.49015,-0.48404 -0.23073,-0.1761 -0.42899,-0.27592 -0.45723,-0.23021 -0.0515,0.0834 0.22338,0.44567 0.49768,0.65589 0.14362,0.11006 0.36949,0.22492 0.44229,0.22492 0.0512,0 0.0574,-0.004 0.0574,-0.0442 z"
       id="path1511"
       inkscape:connector-curvature="0" />
  </g>
</svg>
